<?xml version="1.0" encoding="UTF-8" standalone="no"?>
<svg
   xmlns:dc="http://purl.org/dc/elements/1.1/"
   xmlns:cc="http://creativecommons.org/ns#"
   xmlns:rdf="http://www.w3.org/1999/02/22-rdf-syntax-ns#"
   xmlns:svg="http://www.w3.org/2000/svg"
   xmlns="http://www.w3.org/2000/svg"
   xmlns:sodipodi="http://sodipodi.sourceforge.net/DTD/sodipodi-0.dtd"
   xmlns:inkscape="http://www.inkscape.org/namespaces/inkscape"
   width="360.03281"
   height="376.82535"
   viewBox="0 0 360.03281 376.82535"
   version="1.1"
   preserveAspectRatio="xMidYMid"
   id="svg26"
   sodipodi:docname="ansible_animated.svg"
   inkscape:version="0.92.4 5da689c313, 2019-01-14">
  <sodipodi:namedview
     pagecolor="#ffffff"
     bordercolor="#666666"
     borderopacity="1"
     objecttolerance="10"
     gridtolerance="10"
     guidetolerance="10"
     inkscape:pageopacity="0"
     inkscape:pageshadow="2"
     inkscape:window-width="2556"
     inkscape:window-height="1392"
     id="namedview22"
     showgrid="false"
     inkscape:zoom="1.771401"
     inkscape:cx="104.60744"
     inkscape:cy="247.51826"
     inkscape:window-x="0"
     inkscape:window-y="22"
     inkscape:window-maximized="0"
     inkscape:current-layer="svg26" />
  <metadata
     id="metadata32">
    <rdf:RDF>
      <cc:Work
         rdf:about="">
        <dc:format>image/svg+xml</dc:format>
        <dc:type
           rdf:resource="http://purl.org/dc/dcmitype/StillImage" />
        <dc:title />
        <cc:license
           rdf:resource="http://creativecommons.org/licenses/by/4.0/" />
        <dc:creator>
          <cc:Agent>
            <dc:title>L3D &lt;l3d@c3woc.de&gt;</dc:title>
          </cc:Agent>
        </dc:creator>
      </cc:Work>
      <cc:License
         rdf:about="http://creativecommons.org/licenses/by/4.0/">
        <cc:permits
           rdf:resource="http://creativecommons.org/ns#Reproduction" />
        <cc:permits
           rdf:resource="http://creativecommons.org/ns#Distribution" />
        <cc:requires
           rdf:resource="http://creativecommons.org/ns#Notice" />
        <cc:requires
           rdf:resource="http://creativecommons.org/ns#Attribution" />
        <cc:permits
           rdf:resource="http://creativecommons.org/ns#DerivativeWorks" />
      </cc:License>
    </rdf:RDF>
  </metadata>
  <defs
     id="defs30" />
  <path
     d="m 144.06614,371.55089 c -0.54152,0 -1.12617,-0.13686 -1.53212,-0.68584 l -17.38352,-22.8612 v 23.31869 h -3.96431 v -28.71425 c 0,-1.14253 0.94592,-2.0571 2.0278,-2.0571 0.6297,0 1.17084,0.1826 1.57484,0.73158 l 17.33963,22.81585 v -23.22759 h 3.96392 v 28.66811 c 0,1.18906 -0.94591,2.01174 -2.02624,2.01174"
     id="path2"
     style="fill:#ffffff"
     inkscape:connector-curvature="0" />
  <path
     d="m 176.85559,371.82534 c -3.96276,0 -8.10693,-0.82348 -11.98034,-2.28585 l 0.94631,-3.2927 c 3.55797,1.14331 7.43099,1.96639 11.03403,1.96639 4.99957,0 7.61162,-1.7834 7.61162,-4.29759 0,-2.28663 -2.0274,-3.42956 -9.00817,-6.72187 -6.98076,-3.29191 -9.72722,-5.39476 -9.72722,-9.51055 0,-5.16563 3.96276,-7.27006 11.43843,-7.27006 3.10811,0 7.88161,0.64088 10.63002,1.46395 l -0.63088,3.38302 c -3.01838,-0.73118 -6.8005,-1.23402 -9.90863,-1.23402 -5.2684,0 -7.43061,1.00528 -7.43061,3.52066 0,2.46844 1.57562,3.52026 8.96195,6.94982 7.79187,3.61215 9.77345,5.4413 9.77345,9.18991 0,5.4417 -5.13515,8.13889 -11.70996,8.13889"
     id="path4"
     style="fill:#ffffff"
     inkscape:connector-curvature="0" />
  <path
     d="m 207.34743,340.87103 h 4.09833 v 30.45111 h -4.09833 z"
     id="path6"
     style="fill:#ffffff"
     inkscape:connector-curvature="0" />
  <path
     d="m 246.30714,357.51428 h -10.17978 v 10.33402 h 10.17978 c 3.46745,0 5.58421,-2.19514 5.58421,-5.2591 0,-2.88057 -2.20649,-5.07492 -5.58421,-5.07492 m -1.98273,-13.16846 h -8.19705 v 9.7393 h 8.19705 c 3.28836,0 5.67511,-2.10364 5.67511,-5.02957 0,-2.88058 -2.07209,-4.70973 -5.67511,-4.70973 m 2.02741,26.9766 h -12.24994 c -1.17161,0 -2.07248,-0.91497 -2.07248,-2.0575 v -26.33611 c 0,-1.09797 0.90086,-2.0575 2.07248,-2.0575 h 10.13318 c 6.21509,0 9.90786,3.06317 9.90786,7.86439 0,2.60569 -1.53134,5.02918 -3.8738,6.44659 3.4694,1.05182 5.80992,3.932 5.80992,7.40691 0,4.84657 -4.00743,8.73322 -9.72722,8.73322"
     id="path8"
     style="fill:#ffffff"
     inkscape:connector-curvature="0" />
  <path
     d="m 275.76156,371.32246 c -1.12423,0 -2.02548,-0.96032 -2.02548,-2.0575 v -28.39361 h 4.09756 v 26.74785 h 16.30397 v 3.70326 z"
     id="path10"
     style="fill:#ffffff"
     inkscape:connector-curvature="0" />
  <path
     d="m 322.07549,371.82534 c -8.3773,0 -13.42155,-3.10893 -13.42155,-9.37291 0,-2.97207 1.66692,-5.8069 4.90984,-7.13282 -2.61244,-1.64615 -3.96315,-3.97814 -3.96315,-6.53847 0,-5.66926 4.36987,-8.36803 12.56575,-8.36803 2.74763,0 6.62027,0.32064 9.86359,1.05261 l -0.45101,3.38302 c -3.42201,-0.54898 -6.62104,-0.86804 -9.72839,-0.86804 -5.31462,0 -8.15238,1.46238 -8.15238,4.98343 0,2.78947 2.61283,4.98382 6.08146,4.98382 h 7.02504 c 0.99098,0 1.75626,0.77733 1.75626,1.73726 0,1.00567 -0.76528,1.783 -1.75626,1.783 h -7.56501 c -3.9647,0 -6.48546,1.96561 -6.48546,4.98422 0,4.43484 4.09833,5.76075 9.23231,5.76075 2.79269,0 6.57442,-0.3648 9.63671,-1.09678 l 0.58698,3.33727 c -2.92827,0.82347 -6.75701,1.37167 -10.13473,1.37167"
     id="path12"
     style="fill:#ffffff"
     inkscape:connector-curvature="0" />
  <path
     d="m 90.687303,346.58206 7.177712,17.98426 -10.840571,-8.66933 z m 12.751447,22.12765 -11.03986,-26.97462 c -0.315047,-0.77733 -0.945918,-1.18907 -1.711587,-1.18907 -0.765669,0 -1.441214,0.41174 -1.756261,1.18907 L 76.813191,371.3225 h 4.144558 l 4.797572,-12.19827 14.314249,11.74078 c 0.57571,0.47208 0.99098,0.68584 1.53211,0.68584 1.08033,0 2.02625,-0.82269 2.02625,-2.01136 0,-0.19285 -0.068,-0.49968 -0.18918,-0.82978 z"
     id="path14"
     style="fill:#ffffff"
     inkscape:connector-curvature="0" />
  <path
     inkscape:connector-curvature="0"
     style="vector-effect:none;fill:#068de9;fill-opacity:1;stroke:none;stroke-width:4.80266762;stroke-linecap:round;stroke-linejoin:miter;stroke-miterlimit:4;stroke-dasharray:none;stroke-dashoffset:0;stroke-opacity:1;paint-order:stroke fill markers"
     id="drehen"
     d="m 100.48275,262.7416 c 0.0281,-0.0764 1.77517,-3.12085 3.8876,-6.74663 2.11945,-3.64489 5.6117,-9.6694 7.76624,-13.40982 2.17364,-3.7334 3.97297,-6.80199 4.00612,-6.83319 0.0261,-0.0121 1.26345,0.16075 2.72998,0.41784 4.76648,0.77595 9.67839,1.21501 14.51159,1.27818 2.36786,0.0462 2.45128,0.0551 2.64967,0.51843 0.10173,0.25424 2.41685,6.69995 5.14704,14.31744 2.7302,7.61748 5.02621,14.05618 5.14703,14.31745 0.18632,0.43712 0.69077,0.36229 10.8329,-1.39665 5.83828,-1.02037 10.67467,-1.91019 10.74796,-1.99167 0.0733,-0.0815 0.13351,-7.15052 0.15525,-15.70829 l 0.0277,-15.53828 1.01673,-0.40701 c 7.35217,-2.9578 8.49443,-3.47047 16.04472,-7.43973 l 0.96137,-0.49241 11.64364,9.8525 c 6.39562,5.42988 11.82763,9.9418 12.04983,10.04516 0.34889,0.17159 1.53602,-0.75829 8.70871,-6.7096 7.90681,-6.59229 8.29044,-6.92838 8.07801,-7.35341 -0.12083,-0.26127 -3.55715,-6.25163 -7.63661,-13.32411 -4.07947,-7.07247 -7.49162,-13.01059 -7.58322,-13.17437 -0.12083,-0.26125 0.15014,-0.7038 1.4071,-2.23691 3.37125,-4.16065 5.89378,-7.72246 8.36256,-11.84615 0.78679,-1.31556 1.46324,-2.38976 1.48936,-2.40185 0.0452,-0.005 3.54825,0.61014 7.80014,1.37045 4.24487,0.77941 11.09615,2.018 15.24552,2.76231 4.13025,0.7373 7.58104,1.37667 7.65745,1.40476 0.0764,0.0281 1.85832,-4.5866 3.94285,-10.26107 2.08452,-5.67446 3.71364,-10.3453 3.63723,-10.37338 -0.0764,-0.0281 -3.12011,-1.7756 -6.74504,-3.88853 -3.64402,-2.11995 -9.66711,-5.61302 -13.40663,-7.76807 -3.73253,-2.17415 -6.80039,-3.97392 -6.83158,-4.00707 -0.0121,-0.0261 0.16773,-1.28285 0.41969,-2.79497 0.78785,-4.74148 1.17102,-9.08956 1.29502,-14.44367 0.0345,-1.98239 0.11443,-2.49514 0.37563,-2.616 0.17582,-0.0655 6.62001,-2.38115 14.30703,-5.12914 7.68702,-2.74801 14.18345,-5.08784 14.44464,-5.20869 0.43703,-0.18636 0.36222,-0.69093 -1.39629,-10.83547 -1.61397,-9.18062 -1.91676,-10.65809 -2.29372,-10.75325 -0.23625,-0.0652 -7.29657,-0.14448 -15.68546,-0.14827 l -15.2512,-0.032 -0.41393,-0.99786 c -3.18472,-7.914643 -3.72338,-9.045091 -7.41184,-16.060611 l -0.51139,-0.968619 10.03691,-11.859677 c 5.52295,-6.535932 10.0529,-11.962214 10.04979,-12.071791 -0.003,-0.109566 -3.11292,-3.919814 -6.90177,-8.478393 -6.59073,-7.908678 -6.92674,-8.292396 -7.35167,-8.079921 -0.26121,0.120859 -6.17882,3.540846 -13.19036,7.577998 -7.01152,4.037151 -12.94824,7.450116 -13.19034,7.577995 -0.45105,0.224562 -0.52044,0.177375 -2.35489,-1.320882 -3.72426,-3.081903 -7.75182,-5.928323 -11.88663,-8.423808 -1.28405,-0.753836 -2.3389,-1.423428 -2.35098,-1.449553 -0.005,-0.04526 0.60999,-3.549092 1.37012,-7.801984 0.77924,-4.245875 2.01752,-11.098784 2.76166,-15.249132 0.73712,-4.131243 1.37633,-7.582842 1.40441,-7.659263 0.0281,-0.07646 -4.56639,-1.851751 -10.22042,-3.929748 l -10.27657,-3.776897 -3.04271,5.213885 c -1.66484,2.879496 -5.20426,8.973413 -7.86059,13.548633 -2.63722,4.58223 -4.83698,8.327719 -4.88922,8.35189 -0.0261,0.01209 -1.4303,-0.178703 -3.10891,-0.448671 -5.20271,-0.827846 -8.68236,-1.152547 -14.12563,-1.266455 -1.98193,-0.03447 -2.49457,-0.114448 -2.61539,-0.37571 -0.0654,-0.17586 -2.3806,-6.621577 -5.12793,-14.310414 -2.74735,-7.68885 -5.08663,-14.1868174 -5.20746,-14.4480831 -0.1863,-0.4371227 -0.69077,-0.3622969 -10.8329,1.3966356 -5.83828,1.0203709 -10.67466,1.9101925 -10.74795,1.9916785 -0.0874,0.1197 -0.15012,10.028577 -0.17182,27.911124 l 0.008,3.342471 -1.63464,0.613615 c -5.478548,2.106739 -9.833573,4.105946 -14.888416,6.88886 l -1.499807,0.836662 -3.063525,-2.57885 C 69.203534,37.513661 60.226203,29.963917 60.092488,29.914774 c -0.0955,-0.0351 -2.827271,2.148674 -6.077162,4.857642 -3.237817,2.735091 -6.982831,5.847596 -8.323579,6.95957 -1.961394,1.62117 -2.413252,2.083979 -2.2854,2.32613 0.08458,0.182887 3.520894,6.173255 7.63661,13.324107 4.115707,7.150849 7.552028,13.141218 7.643632,13.304993 0.12083,0.261266 -0.150148,0.703813 -1.407099,2.236908 -3.331094,4.110368 -6.311347,8.327992 -8.645614,12.262579 -0.67841,1.138542 -1.317816,2.052875 -1.394219,2.024796 -0.07644,-0.02809 -4.602738,-0.867571 -10.070893,-1.858041 -5.468163,-0.990475 -12.28124,-2.215001 -15.123893,-2.739303 -2.849664,-0.505185 -5.244011,-0.951452 -5.320415,-0.979532 -0.0955,-0.0351 -1.858325,4.586592 -3.942845,10.261058 -2.084523,5.674475 -3.7136027,10.345319 -3.6372369,10.373379 0.076441,0.0281 3.0819139,1.76157 6.6565469,3.83432 3.59374,2.07978 9.628916,5.59899 13.437828,7.80122 l 6.914991,4.01605 -0.406003,2.3446 c -0.753913,4.47204 -1.21979,9.63545 -1.334826,14.90612 -0.03447,1.9824 -0.114421,2.49515 -0.375622,2.616 -0.175828,0.0655 -6.672255,2.40533 -14.43763,5.18958 -7.765386,2.78425 -14.2618143,5.12408 -14.4446497,5.20869 -0.2541843,0.10174 -0.2093764,0.74709 0.2359726,3.2528 0.301994,1.71572 1.1413109,6.51308 1.8383982,10.69435 0.7231975,4.16918 1.3914968,7.60256 1.4870006,7.63766 0.1337147,0.0492 11.8623353,0.10935 27.2109923,0.11215 l 4.004016,0.0187 0.601389,1.60889 c 2.050884,5.39445 4.075736,9.73842 6.887217,14.89195 l 0.848554,1.52625 -2.169643,2.54217 c -11.558975,13.6423 -17.925228,21.23449 -17.936156,21.38228 0.0031,0.10957 3.112918,3.91981 6.901763,8.47839 6.590727,7.90868 6.926739,8.2924 7.351676,8.07992 0.261203,-0.12085 6.250152,-3.55799 13.320952,-7.63842 7.07079,-4.08044 13.0075,-7.49339 13.171244,-7.58501 0.261194,-0.12087 0.703638,0.15017 2.236378,1.40743 4.222043,3.43834 7.084063,5.44437 11.584902,8.18281 1.454022,0.88135 2.647641,1.64532 2.659722,1.67145 0.02418,0.0523 -0.723882,4.33127 -1.680181,9.53129 -0.937198,5.20704 -2.184447,12.14339 -2.7796,15.41602 l -1.056152,5.944 10.276572,3.77689 c 5.654029,2.078 10.304644,3.70048 10.332724,3.62405 z m 4.13007,-55.2113 C 91.830484,202.31202 79.719442,192.37449 71.539289,180.41197 60.713618,164.61469 56.170435,145.46647 58.695755,126.55237 c 0.805878,-5.97093 1.887632,-10.21405 4.112526,-16.27063 2.224893,-6.0566 4.147099,-9.99083 7.397969,-15.063159 15.25271,-23.756383 42.33731,-37.287484 70.49974,-35.220929 8.25474,0.605042 15.99403,2.495263 24.10743,5.845792 30.39963,12.560501 49.40325,43.572306 47.00778,76.651376 -0.58386,8.19938 -2.47558,16.00482 -5.82532,24.12016 -9.37427,22.68572 -29.42884,39.62458 -53.5364,45.22866 -11.71014,2.72232 -23.5101,2.67927 -35.56675,-0.14713 -1.91796,-0.44467 -7.9326,-2.30824 -8.89078,-2.76882 -0.31771,-0.13845 -1.83685,-0.78352 -3.38913,-1.39739 z"
     inkscape:label="#path4-2" >
   <animateTransform 
      repeatCount="indefinite"
      attributeName="transform" type="rotate"
      from="0 134 235" to="390 134 235" begin="0" dur="1s" />
    </path>
  <path
     style="opacity:1;vector-effect:none;fill:#def1fe;fill-opacity:1;stroke:none;stroke-width:4.76038074;stroke-linecap:round;stroke-linejoin:miter;stroke-miterlimit:4;stroke-dasharray:none;stroke-dashoffset:0;stroke-opacity:1;paint-order:stroke fill markers"
     id="path6-5"
     d="m 269.90886,180.09802 c -0.4036,0.12421 -1.96902,0.52349 -3.4971,0.91996 -7.59005,1.90349 -9.73474,3.58516 -9.76749,7.64192 -0.0196,2.23509 0.54359,4.48268 2.45407,9.66965 1.15177,3.0855 1.33072,4.217 0.85824,5.17227 -0.31112,0.60525 -0.79399,0.92312 -3.80566,2.55737 -0.66672,0.36923 -2.60007,1.86607 -4.34397,3.3862 -3.69913,3.22509 -5.10061,4.30652 -5.5859,4.34302 -0.18664,0.014 -1.57778,-0.76353 -3.07629,-1.72071 -6.21336,-3.99996 -8.79116,-5.08244 -11.60948,-4.87048 -1.9411,0.14599 -3.62998,1.39921 -5.09838,3.83711 -1.00056,1.6707 -3.64238,6.9748 -4.25238,8.59736 -1.02368,2.61092 -0.75631,4.91829 0.75219,6.75691 1.11735,1.38001 3.32989,2.84659 7.76603,5.17829 2.07106,1.08306 3.84952,2.01919 3.94707,2.06818 0.1176,0.0663 -0.0101,0.86417 -0.3393,1.97757 -1.13494,3.87688 -1.70757,7.99303 -1.82548,13.16364 -0.0712,3.04607 -0.22559,3.48939 -1.40648,4.00991 -0.3994,0.1802 -2.25501,0.71392 -4.13211,1.21172 -5.33546,1.43362 -6.91855,2.097 -8.23878,3.5102 -1.84085,1.97789 -1.88276,4.66514 -0.20652,9.98237 0.34273,1.06288 0.83531,2.62127 1.1066,3.48305 0.7354,2.29093 1.95788,4.32 3.19228,5.25951 1.43508,1.11211 2.52281,1.3494 5.05976,1.13982 2.12494,-0.19731 3.50651,-0.54526 9.11533,-2.33729 1.44782,-0.46551 2.65862,-0.83813 2.67868,-0.82086 2.99201,4.84286 6.93071,9.29543 10.70715,12.08968 1.67027,1.24458 1.73973,0.92027 -2.03708,7.60487 -2.51974,4.4315 -3.24875,5.96915 -3.54567,7.51185 -0.2144,1.14231 0.0626,2.82954 0.62092,3.7636 1.43299,2.33232 8.82277,6.75057 13.53913,8.06639 2.05183,0.57771 3.81553,0.0697 5.60701,-1.56666 1.0007,-0.91989 2.35108,-3.18 4.20371,-6.99823 1.38151,-2.84432 3.57373,-7.13857 3.7939,-7.45546 0.0345,-0.0401 0.71767,0.0587 1.53568,0.2036 3.59915,0.68658 7.20335,0.94107 11.43834,0.84781 3.7469,-0.0941 3.76698,-0.0768 4.09118,1.73824 0.3513,1.92564 2.78192,11.03396 3.32069,12.45749 0.97902,2.53539 2.09638,3.91542 3.78475,4.65185 0.91232,0.40064 1.15775,0.41971 3.2281,0.24523 2.59434,-0.19511 4.74719,-0.76996 9.09387,-2.37322 3.28658,-1.22321 3.98922,-1.61391 4.98753,-2.81519 1.18678,-1.44069 1.45578,-2.60588 1.2368,-5.51752 -0.18147,-2.16367 -0.27963,-2.71938 -1.07661,-5.08077 -0.48558,-1.46507 -1.43147,-4.05925 -2.08462,-5.75575 -0.65456,-1.71514 -1.24469,-3.32251 -1.32033,-3.57961 -0.15972,-0.62615 0.38238,-1.15494 2.69323,-2.62386 2.27353,-1.46611 5.80244,-4.20915 7.64147,-5.96167 0.80662,-0.75515 1.64636,-1.56911 1.87497,-1.774 l 0.42128,-0.38831 4.19168,2.57532 c 6.98379,4.2611 8.52425,5.02744 11.03286,5.4394 2.43255,0.39892 4.43931,-0.37138 6.07205,-2.37121 0.94653,-1.14106 4.50555,-7.22741 5.25505,-8.99184 1.72097,-4.07112 1.36307,-6.33413 -1.38626,-8.69884 -1.46356,-1.24137 -3.42405,-2.3515 -7.5078,-4.24046 -4.49113,-2.06477 -5.07773,-2.37729 -5.34101,-2.88304 -0.36924,-0.66673 -0.3576,-0.76145 0.20889,-2.9626 0.94788,-3.6188 1.43998,-6.80916 1.6431,-10.59719 0.13341,-2.4689 0.34558,-3.1418 1.15641,-3.84096 1.02218,-0.88398 2.35942,-1.32241 6.94044,-2.30512 1.81087,-0.38019 3.65484,-0.8192 4.0757,-0.96348 3.3482,-1.15276 4.88959,-2.62011 5.23393,-5.02979 0.43708,-2.92345 -2.16152,-12.01913 -4.30953,-15.12355 -2.18954,-3.1576 -5.38635,-3.23627 -13.55386,-0.27577 -5.18979,1.87315 -5.66482,1.79625 -7.55433,-1.36515 -1.41854,-2.38971 -2.08037,-3.20336 -4.43353,-5.54155 -2.35037,-2.30087 -3.40892,-3.64777 -3.85197,-4.79695 -0.44868,-1.22385 -0.38666,-1.39744 1.78283,-4.99551 3.44059,-5.66449 4.39143,-8.49518 3.69098,-11.07029 -0.60193,-2.26343 -2.09679,-3.67137 -6.87087,-6.50322 -4.77266,-2.81317 -6.61175,-3.55704 -8.6275,-3.40544 -3.07962,0.23161 -5.03148,2.48064 -8.52958,9.87629 -2.09046,4.39923 -2.45153,4.83932 -3.90735,4.94881 -0.46661,0.0351 -1.87163,-0.17832 -3.15302,-0.4949 -2.06489,-0.50164 -2.7079,-0.56591 -5.88183,-0.58998 -4.45153,-0.0406 -5.94987,-0.24701 -6.85013,-0.98641 -0.65803,-0.51361 -0.68232,-0.58686 -1.40902,-3.76064 -1.50017,-6.71942 -2.55243,-9.23053 -4.6092,-11.12177 -1.35159,-1.24979 -2.62414,-1.69841 -4.64551,-1.62147 -0.89869,0.0301 -1.95835,0.16604 -2.36195,0.29026 z m 19.05169,48.42009 c 4.14224,0.42051 7.81439,2.07763 10.80269,4.87484 3.51571,3.32066 5.68468,8.45065 5.82064,13.75232 0.049,2.39887 -0.27021,4.39371 -1.03597,6.44092 -2.32619,6.2564 -8.44998,11.1842 -15.80259,12.75075 -2.34651,0.49556 -6.78261,0.66027 -8.66827,0.2953 -5.95845,-1.10979 -10.21835,-4.09292 -12.99761,-9.10194 -2.08095,-3.71009 -3.01764,-9.17678 -2.26301,-13.11891 0.70104,-3.65655 2.87656,-7.42399 5.74339,-9.98584 5.01473,-4.45023 11.68504,-6.60364 18.40073,-5.90744 z"
     inkscape:connector-curvature="0" />
  <circle
     r="124.0633"
     cy="190.17296"
     cx="207.37907"
     id="circle881"
     style="opacity:1;vector-effect:none;fill:#191919;fill-opacity:1;stroke:none;stroke-width:5.02448606;stroke-linecap:round;stroke-linejoin:miter;stroke-miterlimit:4;stroke-dasharray:none;stroke-dashoffset:0;stroke-opacity:1;paint-order:stroke fill markers" />
  <circle
     style="opacity:1;vector-effect:none;fill:#068de9;fill-opacity:1;stroke:none;stroke-width:4.83528852;stroke-linecap:round;stroke-linejoin:miter;stroke-miterlimit:4;stroke-dasharray:none;stroke-dashoffset:0;stroke-opacity:1;paint-order:stroke fill markers"
     id="path831"
     cx="207.37907"
     cy="190.17296"
     r="119.39169" />
  <ellipse
     cy="190.17296"
     cx="207.71277"
     id="circle851"
     style="opacity:1;vector-effect:none;fill:#def1fe;fill-opacity:1;stroke:none;stroke-width:4.76038074;stroke-linecap:round;stroke-linejoin:miter;stroke-miterlimit:4;stroke-dasharray:none;stroke-dashoffset:0;stroke-opacity:1;paint-order:stroke fill markers"
     rx="115.72114"
     ry="119.39169" />
  <path
     d="m 207.00916,135.91627 33.0116,81.47625 -49.86345,-39.2778 z M 265.65364,236.1615 214.87507,113.95943 c -1.44952,-3.52436 -4.34807,-5.38925 -7.86591,-5.38925 -3.52436,0 -6.63386,1.86489 -8.08338,5.38925 l -55.73287,134.04036 h 19.06532 l 22.0623,-55.26527 65.83887,53.18993 c 2.64792,2.14114 4.55852,3.1095 7.0422,3.1095 4.97389,0 9.32146,-3.72879 9.32146,-9.11102 0,-0.87594 -0.3094,-2.2662 -0.86942,-3.76143 z"
     id="path20"
     style="fill:#000000"
     inkscape:connector-curvature="0" />
</svg>
