<?xml version="1.0" encoding="UTF-8" standalone="no"?>
<svg
   xmlns:dc="http://purl.org/dc/elements/1.1/"
   xmlns:cc="http://creativecommons.org/ns#"
   xmlns:rdf="http://www.w3.org/1999/02/22-rdf-syntax-ns#"
   xmlns:svg="http://www.w3.org/2000/svg"
   xmlns="http://www.w3.org/2000/svg"
   xmlns:sodipodi="http://sodipodi.sourceforge.net/DTD/sodipodi-0.dtd"
   xmlns:inkscape="http://www.inkscape.org/namespaces/inkscape"
   width="1218.2391"
   height="1288.0145"
   viewBox="0 0 1218.2391 1288.0145"
   version="1.1"
   preserveAspectRatio="xMidYMid"
   id="svg26"
   sodipodi:docname="ansible_animated.svg"
   inkscape:version="0.92.4 5da689c313, 2019-01-14">
  <sodipodi:namedview
     pagecolor="#ffffff"
     bordercolor="#666666"
     borderopacity="1"
     objecttolerance="10"
     gridtolerance="10"
     guidetolerance="10"
     inkscape:pageopacity="0"
     inkscape:pageshadow="2"
     inkscape:window-width="1276"
     inkscape:window-height="1392"
     id="namedview22"
     showgrid="false"
     inkscape:zoom="1.2525697"
     inkscape:cx="427.21196"
     inkscape:cy="1026.3544"
     inkscape:window-x="1280"
     inkscape:window-y="22"
     inkscape:window-maximized="0"
     inkscape:current-layer="svg26"
     fit-margin-top="22"
     fit-margin-right="22"
     fit-margin-bottom="22"
     fit-margin-left="22"
     showguides="true"
     inkscape:guide-bbox="true">
    <sodipodi:guide
       position="415.49033,830.98066"
       orientation="0,1"
       id="guide838"
       inkscape:locked="false" />
    <sodipodi:guide
       position="456.13612,781.30247"
       orientation="1,0"
       id="guide840"
       inkscape:locked="false" />
  </sodipodi:namedview>
  <metadata
     id="metadata32">
    <rdf:RDF>
      <cc:Work
         rdf:about="">
        <dc:format>image/svg+xml</dc:format>
        <dc:type
           rdf:resource="http://purl.org/dc/dcmitype/StillImage" />
        <dc:title></dc:title>
        <cc:license
           rdf:resource="http://creativecommons.org/licenses/by/4.0/" />
        <dc:creator>
          <cc:Agent>
            <dc:title>L3D &lt;l3d@c3woc.de&gt;</dc:title>
          </cc:Agent>
        </dc:creator>
      </cc:Work>
      <cc:License
         rdf:about="http://creativecommons.org/licenses/by/4.0/">
        <cc:permits
           rdf:resource="http://creativecommons.org/ns#Reproduction" />
        <cc:permits
           rdf:resource="http://creativecommons.org/ns#Distribution" />
        <cc:requires
           rdf:resource="http://creativecommons.org/ns#Notice" />
        <cc:requires
           rdf:resource="http://creativecommons.org/ns#Attribution" />
        <cc:permits
           rdf:resource="http://creativecommons.org/ns#DerivativeWorks" />
      </cc:License>
    </rdf:RDF>
  </metadata>
  <defs
     id="defs30" />
  <path
     d="m 371.33037,1264.9229 c -2.15388,0 -4.47935,-0.5444 -6.09402,-2.7279 l -69.14332,-90.9309 v 92.7506 h -15.76811 v -114.2116 c 0,-4.5444 3.76242,-8.1821 8.06561,-8.1821 2.50465,0 4.65705,0.7263 6.26396,2.9099 l 68.96874,90.7505 v -92.3882 h 15.76658 v 114.028 c 0,4.7295 -3.76239,8.0017 -8.05944,8.0017"
     id="path2"
     style="opacity:1;vector-effect:none;fill:#def1fe;fill-opacity:1;stroke:none;stroke-width:15.96943283;stroke-linecap:round;stroke-linejoin:miter;stroke-miterlimit:4;stroke-dasharray:none;stroke-dashoffset:0;stroke-opacity:1;paint-order:stroke fill markers"
     inkscape:connector-curvature="0" />
  <path
     d="m 501.7511,1266.0145 c -15.76198,0 -32.24548,-3.2753 -47.65208,-9.0919 l 3.76398,-13.0968 c 14.1519,4.5475 29.55691,7.8213 43.8881,7.8213 19.88588,0 30.27536,-7.0935 30.27536,-17.0938 0,-9.095 -8.06403,-13.6411 -35.83017,-26.7363 -27.76614,-13.0937 -38.69024,-21.4578 -38.69024,-37.8284 0,-20.5464 15.76197,-28.9168 45.4966,-28.9168 12.36257,0 31.34924,2.5491 42.28114,5.8228 l -2.50936,13.4561 c -12.00566,-2.9083 -27.04912,-4.9084 -39.41178,-4.9084 -20.95515,0 -29.55539,3.9986 -29.55539,14.0036 0,9.8182 6.26707,14.0019 35.64631,27.643 30.99232,14.3674 38.87412,21.6429 38.87412,36.5531 0,21.6444 -20.42518,32.3725 -46.57659,32.3725"
     id="path4"
     style="opacity:1;vector-effect:none;fill:#def1fe;fill-opacity:1;stroke:none;stroke-width:15.96943283;stroke-linecap:round;stroke-linejoin:miter;stroke-miterlimit:4;stroke-dasharray:none;stroke-dashoffset:0;stroke-opacity:1;paint-order:stroke fill markers"
     inkscape:connector-curvature="0" />
  <path
     d="m 623.03299,1142.8932 h 16.30117 v 121.1199 h -16.30117 z"
     id="path6"
     style="opacity:1;vector-effect:none;fill:#def1fe;fill-opacity:1;stroke:none;stroke-width:15.96943283;stroke-linecap:round;stroke-linejoin:miter;stroke-miterlimit:4;stroke-dasharray:none;stroke-dashoffset:0;stroke-opacity:1;paint-order:stroke fill markers"
     inkscape:connector-curvature="0" />
  <path
     d="m 777.99604,1209.092 h -40.49029 v 41.1038 h 40.49029 c 13.79186,0 22.21129,-8.7312 22.21129,-20.9182 0,-11.4575 -8.77634,-20.1856 -22.21129,-20.1856 m -7.88636,-52.3778 h -32.60393 v 38.7383 h 32.60393 c 13.07953,0 22.57286,-8.3673 22.57286,-20.0052 0,-11.4576 -8.24178,-18.7331 -22.57286,-18.7331 m 8.06405,107.3 h -48.72438 c -4.66008,0 -8.24333,-3.6393 -8.24333,-8.1838 V 1151.078 c 0,-4.3672 3.58321,-8.1837 8.24333,-8.1837 h 40.30493 c 24.72066,0 39.40872,12.1838 39.40872,31.2807 0,10.3642 -6.09093,20.0037 -15.4081,25.6415 13.79959,4.1836 23.10907,15.6396 23.10907,29.4611 0,19.2773 -15.93964,34.7366 -38.69024,34.7366"
     id="path8"
     style="opacity:1;vector-effect:none;fill:#def1fe;fill-opacity:1;stroke:none;stroke-width:15.96943283;stroke-linecap:round;stroke-linejoin:miter;stroke-miterlimit:4;stroke-dasharray:none;stroke-dashoffset:0;stroke-opacity:1;paint-order:stroke fill markers"
     inkscape:connector-curvature="0" />
  <path
     d="m 895.15156,1264.0143 c -4.47164,0 -8.05636,-3.8196 -8.05636,-8.1837 v -112.9362 h 16.29812 v 106.3901 h 64.84937 v 14.7298 z"
     id="path10"
     style="opacity:1;vector-effect:none;fill:#def1fe;fill-opacity:1;stroke:none;stroke-width:15.96943283;stroke-linecap:round;stroke-linejoin:miter;stroke-miterlimit:4;stroke-dasharray:none;stroke-dashoffset:0;stroke-opacity:1;paint-order:stroke fill markers"
     inkscape:connector-curvature="0" />
  <path
     d="m 1079.3662,1266.0145 c -33.3209,0 -53.3845,-12.3658 -53.3845,-37.2809 0,-11.8214 6.6302,-23.097 19.529,-28.3709 -10.3911,-6.5476 -15.7635,-15.8232 -15.7635,-26.0069 0,-22.5496 17.3812,-33.284 49.9805,-33.284 10.9287,0 26.3322,1.2753 39.2326,4.1868 l -1.7939,13.456 c -13.6111,-2.1836 -26.3353,-3.4527 -38.6949,-3.4527 -21.1389,0 -32.4262,5.8167 -32.4262,19.8218 0,11.0951 10.3926,19.8232 24.1891,19.8232 h 27.9422 c 3.9417,0 6.9856,3.0918 6.9856,6.9099 0,4.0001 -3.0439,7.092 -6.9856,7.092 h -30.0899 c -15.7697,0 -25.7961,7.8182 -25.7961,19.8248 0,17.6397 16.3012,22.9135 36.7217,22.9135 11.108,0 26.1499,-1.451 38.3302,-4.3625 l 2.3348,13.2741 c -11.6473,3.2754 -26.8762,5.4558 -40.3111,5.4558"
     id="path12"
     style="opacity:1;vector-effect:none;fill:#def1fe;fill-opacity:1;stroke:none;stroke-width:15.96943283;stroke-linecap:round;stroke-linejoin:miter;stroke-miterlimit:4;stroke-dasharray:none;stroke-dashoffset:0;stroke-opacity:1;paint-order:stroke fill markers"
     inkscape:connector-curvature="0" />
  <path
     d="m 159.01498,1165.6089 28.5495,71.5328 -43.1186,-34.4825 z m 50.71914,88.0132 -43.91127,-107.2921 c -1.2531,-3.0919 -3.76241,-4.7296 -6.80787,-4.7296 -3.04546,0 -5.73246,1.6377 -6.98557,4.7296 l -48.19899,117.6845 h 16.48506 l 19.08244,-48.5189 56.93522,46.6992 c 2.28989,1.8777 3.94164,2.728 6.09399,2.728 4.29704,0 8.05945,-3.2723 8.05945,-8.0002 0,-0.7671 -0.27048,-1.9875 -0.75246,-3.3005 z"
     id="path14"
     style="opacity:1;vector-effect:none;fill:#def1fe;fill-opacity:1;stroke:none;stroke-width:15.96943283;stroke-linecap:round;stroke-linejoin:miter;stroke-miterlimit:4;stroke-dasharray:none;stroke-dashoffset:0;stroke-opacity:1;paint-order:stroke fill markers"
     inkscape:connector-curvature="0" />
  <path
     inkscape:connector-curvature="0"
     style="vector-effect:none;fill:#068de9;fill-opacity:1;stroke:none;stroke-width:16.11129189;stroke-linecap:round;stroke-linejoin:miter;stroke-miterlimit:4;stroke-dasharray:none;stroke-dashoffset:0;stroke-opacity:1;paint-order:stroke fill markers"
     id="drehen"
     d="m 342.31165,880.51068 c 0.0944,-0.25629 5.95508,-10.46936 13.04156,-22.63259 7.11001,-12.22736 18.82531,-32.43751 26.05304,-44.98533 7.29182,-12.52427 13.32795,-22.81834 13.43914,-22.92298 0.0876,-0.0406 4.23844,0.53926 9.15815,1.40169 15.9899,2.60304 32.46766,4.07595 48.68137,4.28786 7.94335,0.1551 8.22321,0.18491 8.88872,1.73915 0.34128,0.85289 8.10771,22.47602 17.26655,48.03007 9.15888,25.55401 16.8612,47.15363 17.2665,48.03009 0.62506,1.46641 2.3173,1.21538 36.34065,-4.68526 19.58541,-3.423 35.80982,-6.40803 36.05569,-6.68136 0.2459,-0.27342 0.44788,-23.98753 0.52082,-52.6959 l 0.093,-52.12556 3.41076,-1.36539 c 24.66401,-9.92239 28.4959,-11.64222 53.8245,-24.95771 l 3.22507,-1.65187 39.0604,33.05172 c 21.45509,18.21539 39.67761,33.35133 40.423,33.69806 1.17041,0.57564 5.15283,-2.5438 29.21473,-22.50841 26.52461,-22.11484 27.81155,-23.24232 27.09892,-24.66813 -0.40534,-0.87649 -11.933,-20.97207 -25.61818,-44.69779 -13.68522,-23.72571 -25.13181,-43.64604 -25.43909,-44.19547 -0.40535,-0.8764 0.50366,-2.361 4.72034,-7.50406 11.30938,-13.95754 19.7716,-25.90619 28.0535,-39.73974 2.63939,-4.41323 4.90866,-8.01682 4.99629,-8.05737 0.15174,-0.0157 11.90315,2.04682 26.16677,4.59739 14.24008,2.61465 37.22375,6.76969 51.14345,9.26658 13.85556,2.4734 25.43177,4.61827 25.68811,4.7125 0.2563,0.0944 6.23402,-15.38647 13.22689,-34.42236 6.99284,-19.03583 12.45799,-34.70489 12.20165,-34.79909 -0.25629,-0.0944 -10.46689,-5.95654 -22.62728,-13.04467 -12.22442,-7.11172 -32.42982,-18.82976 -44.97462,-26.05921 -12.52135,-7.2935 -22.81295,-13.33111 -22.91757,-13.44232 -0.0406,-0.0876 0.56266,-4.30353 1.4079,-9.37616 2.64296,-15.90603 3.92838,-30.49235 4.34434,-48.45352 0.11566,-6.65025 0.38387,-8.37035 1.26012,-8.77578 0.58982,-0.21965 22.20784,-7.98793 47.99514,-17.2065 25.78729,-9.21862 47.58058,-17.06795 48.45677,-17.47336 1.46609,-0.62517 1.21513,-2.31783 -4.68405,-36.34925 -5.41432,-30.79782 -6.43009,-35.75422 -7.69466,-36.07345 -0.79253,-0.21875 -24.47746,-0.48468 -52.61929,-0.49739 l -51.16251,-0.10736 -1.38858,-3.34749 C 765.226,317.27208 763.41899,313.47982 751.04548,289.94517 l -1.71553,-3.24939 33.67037,-39.78513 c 18.52758,-21.92578 33.72401,-40.12908 33.71356,-40.49667 -0.009,-0.36756 -10.44275,-13.14963 -23.15304,-28.44209 -22.10963,-26.53088 -23.23683,-27.81812 -24.66231,-27.10534 -0.87628,0.40544 -20.72781,11.87832 -44.2491,25.42157 -23.52123,13.54324 -43.43688,24.99256 -44.24904,25.42155 -1.51311,0.75333 -1.7459,0.59503 -7.89985,-4.4311 -12.4936,-10.33872 -26.00467,-19.88748 -39.87554,-28.25897 -4.30754,-2.52886 -7.84619,-4.77511 -7.88671,-4.86275 -0.0157,-0.15182 2.04629,-11.90598 4.59628,-26.17296 2.61407,-14.24344 6.76808,-37.23259 9.26441,-51.155574 2.47277,-13.85889 4.61711,-25.43781 4.71131,-25.69418 0.0944,-0.2565 -15.31867,-6.21199 -34.28597,-13.18295 l -34.47435,-12.67018 -10.20724,17.49078 c -5.58498,9.65971 -17.4585,30.1027 -26.36956,45.45098 -8.84698,15.371804 -16.2264,27.936624 -16.40165,28.017714 -0.0876,0.0406 -4.79816,-0.59949 -10.42933,-1.50514 -17.45329,-2.77713 -29.1263,-3.86639 -47.38661,-4.24852 -6.64868,-0.11562 -8.36841,-0.38393 -8.77373,-1.26037 -0.21943,-0.58995 -7.98608,-22.213114 -17.20243,-48.006504 -9.2164,-25.79343 -17.06389,-47.59187 -17.46923,-48.46833 -0.62497,-1.46639 -2.31729,-1.21538 -36.34063,4.68523 -19.58541,3.423 -35.80979,6.40804 -36.05566,6.6814 -0.29319,0.40155 -0.50361,33.64241 -0.5764,93.632184 l 0.0269,11.21283 -5.48366,2.05847 c -18.37863,7.06738 -32.98823,13.77403 -49.9455,23.10974 l -5.03133,2.80672 -10.27707,-8.65115 c -39.24616,-33.33828 -69.36201,-58.665074 -69.81057,-58.829924 -0.32037,-0.11776 -9.48452,7.208054 -20.38678,16.295714 -10.86176,9.17528 -23.42499,19.61666 -27.92274,23.34695 -6.5798,5.43846 -8.09562,6.99103 -7.66672,7.80336 0.28373,0.61352 11.81138,20.70914 25.61819,44.69778 13.80677,23.98863 25.33444,44.08424 25.64174,44.63366 0.40534,0.87646 -0.50369,2.36104 -4.72033,7.50405 -11.17467,13.78886 -21.17239,27.93754 -29.00305,41.13671 -2.27583,3.81942 -4.42082,6.88668 -4.67712,6.7925 -0.25643,-0.0944 -15.4406,-2.91041 -33.78437,-6.23309 -18.3438,-3.32271 -41.199317,-7.43057 -50.735435,-9.18942 -9.559639,-1.69472 -17.591847,-3.19178 -17.848155,-3.28599 -0.320369,-0.11767 -6.234039,15.38643 -13.226884,34.42231 -6.992854,19.03591 -12.457853,34.70496 -12.201673,34.7991 0.256433,0.0944 10.338758,5.90947 22.330415,12.86281 12.055757,6.97695 32.301688,18.78269 45.079272,26.17042 l 23.19741,13.47245 -1.362,7.86533 c -2.52912,15.00215 -4.09198,32.32359 -4.47788,50.00487 -0.11563,6.65027 -0.38385,8.37037 -1.26009,8.77578 -0.58984,0.21965 -22.383106,8.06905 -48.433257,17.40925 -26.050188,9.34019 -47.843461,17.18952 -48.45681,17.47336 -0.852701,0.34131 -0.702386,2.50624 0.791606,10.91202 1.013086,5.75565 3.828704,21.84914 6.167191,35.87584 2.426078,13.98616 4.66799,25.50396 4.988373,25.62172 0.448567,0.16496 39.794038,0.36684 91.283477,0.37623 l 13.43209,0.0628 2.01746,5.39726 c 6.88,18.09651 13.67268,32.66904 23.10423,49.95735 l 2.84661,5.12004 -7.27841,8.52809 c -38.77637,45.76518 -60.132945,71.23435 -60.169604,71.73013 0.01031,0.36758 10.442764,13.14961 23.153034,28.44206 22.10961,26.53091 23.23681,27.81814 24.66233,27.10536 0.87624,-0.40541 20.9671,-11.93583 44.68719,-25.62428 23.72006,-13.68847 43.63568,-25.13773 44.18498,-25.44508 0.87622,-0.40548 2.36046,0.50378 7.50226,4.72144 14.16352,11.53445 23.76459,18.26398 38.86336,27.4505 4.87773,2.95663 8.88193,5.51948 8.92245,5.60714 0.0811,0.17549 -2.42837,14.52993 -5.63643,31.97419 -3.14399,17.46782 -7.32807,40.73688 -9.32459,51.71542 l -3.54302,19.94008 34.47433,12.67015 c 18.96732,6.97098 34.56853,12.41383 34.66273,12.15743 z M 356.1666,695.29585 c -42.88033,-17.50552 -83.50868,-50.84252 -110.95026,-90.97263 -36.3164,-52.99441 -51.55721,-117.23008 -43.08563,-180.68035 2.70344,-20.0304 6.33235,-34.26461 13.79611,-54.58235 7.46374,-20.31779 13.91208,-33.51579 24.81763,-50.53169 51.16757,-79.69446 142.02705,-125.08663 236.50227,-118.15405 27.69179,2.02971 53.65444,8.37075 80.87211,19.61061 101.98026,42.13614 165.73084,146.17003 157.69485,257.1389 -1.95864,27.50608 -8.30472,53.69064 -19.54193,80.91479 -31.44743,76.10275 -98.7236,132.92677 -179.59612,151.72654 -39.28348,9.13243 -78.86827,8.98803 -119.31418,-0.49359 -6.43408,-1.4917 -26.61113,-7.74333 -29.82549,-9.28843 -1.06581,-0.46444 -6.162,-2.62843 -11.36936,-4.68775 z"
     inkscape:label="#path4-2" >
   <animateTransform 
      repeatCount="indefinite"
      attributeName="transform" type="rotate"
      from="0 460 460" to="360 460 460" begin="0" dur="18s" />
    </path>
  <path
     style="opacity:1;vector-effect:none;fill:#def1fe;fill-opacity:1;stroke:none;stroke-width:15.96943283;stroke-linecap:round;stroke-linejoin:miter;stroke-miterlimit:4;stroke-dasharray:none;stroke-dashoffset:0;stroke-opacity:1;paint-order:stroke fill markers"
     id="path6-5"
     d="m 910.67773,603.27004 c -1.35396,0.41668 -6.6054,1.75611 -11.73158,3.08612 -25.46198,6.38555 -32.65669,12.02699 -32.76656,25.63602 -0.0657,7.49794 1.82356,15.03783 8.23257,32.43832 3.86378,10.3508 4.4641,14.1466 2.87911,17.35119 -1.04372,2.0304 -2.66358,3.09675 -12.76669,8.5791 -2.2366,1.23864 -8.72234,6.26001 -14.57251,11.35952 -12.4093,10.81907 -17.1108,14.44688 -18.73878,14.56932 -0.62611,0.0471 -5.29291,-2.56137 -10.31988,-5.77237 -20.84367,-13.41848 -29.49131,-17.04983 -38.9458,-16.33877 -6.51171,0.48974 -12.17733,4.69385 -17.10329,12.87218 -3.35655,5.60461 -12.21893,23.39804 -14.26527,28.84116 -3.4341,8.75873 -2.53717,16.49917 2.52334,22.66709 3.74833,4.62946 11.17062,9.54934 26.05234,17.37138 6.94769,3.6333 12.9138,6.7737 13.24106,6.93803 0.39449,0.22234 -0.0338,2.899 -1.13823,6.63407 -3.80734,13.00558 -5.72831,26.81385 -6.12385,44.15948 -0.23886,10.21851 -0.75678,11.70569 -4.71826,13.45185 -1.33986,0.6045 -7.5648,2.39496 -13.86181,4.06489 -17.89863,4.8093 -23.20935,7.03473 -27.63826,11.77553 -6.17543,6.63512 -6.316,15.64994 -0.69281,33.48739 1.14975,3.5656 2.80218,8.79346 3.71227,11.68445 2.46701,7.68526 6.56801,14.49209 10.709,17.64382 4.81418,3.73074 8.46315,4.52676 16.97374,3.82371 7.12843,-0.66191 11.76313,-1.82916 30.57879,-7.84081 4.85693,-1.56162 8.91875,-2.81162 8.98604,-2.75371 10.03716,16.24613 23.25014,31.18296 35.91879,40.55672 5.60317,4.17513 5.8362,3.08719 -6.83371,25.5117 -8.45284,14.86617 -10.89843,20.02448 -11.89449,25.19968 -0.71924,3.832 0.21001,9.4921 2.08298,12.6256 4.80717,7.8241 29.59735,22.6458 45.4191,27.0599 6.88319,1.938 12.79979,0.2338 18.80958,-5.2556 3.357,-3.0859 7.88707,-10.6678 14.10199,-23.4766 4.6345,-9.5417 11.98864,-23.94745 12.72724,-25.01053 0.11565,-0.13448 2.40753,0.19701 5.15166,0.68302 12.07392,2.30324 24.16475,3.15691 38.37168,2.84411 12.56956,-0.31569 12.63692,-0.25764 13.72449,5.8312 1.17851,6.4599 9.33239,37.0151 11.13978,41.7906 3.28427,8.5053 7.03262,13.1349 12.6965,15.6053 3.0605,1.344 3.8839,1.408 10.8292,0.8227 8.7031,-0.6546 15.9252,-2.583 30.5068,-7.9614 11.0253,-4.1034 13.3824,-5.4141 16.7314,-9.444 3.9813,-4.833 4.8837,-8.7418 4.1491,-18.5093 -0.6088,-7.2584 -0.9381,-9.1226 -3.6117,-17.0443 -1.6289,-4.9147 -4.8021,-13.61732 -6.9932,-19.30851 -2.1958,-5.7537 -4.1755,-11.14586 -4.4292,-12.00834 -0.5358,-2.10053 1.2827,-3.87442 9.0348,-8.80215 7.6269,-4.9183 19.4652,-14.12024 25.6345,-19.99934 2.706,-2.53327 5.523,-5.26382 6.2899,-5.95116 l 1.4132,-1.30265 14.0617,8.63932 c 23.4282,14.29452 28.5959,16.86531 37.0114,18.2473 8.1604,1.33825 14.8924,-1.24585 20.3697,-7.9546 3.1752,-3.82785 15.1145,-24.24546 17.6288,-30.16451 5.7733,-13.6572 4.5726,-21.24882 -4.6504,-29.1816 -4.9097,-4.16436 -11.4865,-7.88846 -25.1861,-14.22528 -15.0662,-6.92658 -17.034,-7.97498 -17.9172,-9.67161 -1.2387,-2.23663 -1.1996,-2.55441 0.7007,-9.93848 3.1798,-12.13984 4.8307,-22.84238 5.5121,-35.54992 0.4475,-8.2823 1.1593,-10.53967 3.8793,-12.88509 3.4291,-2.96546 7.9151,-4.43623 23.2828,-7.73289 6.0748,-1.2754 12.2607,-2.74812 13.6726,-3.23214 11.232,-3.86711 16.4029,-8.78956 17.558,-16.87322 1.4662,-9.80716 -7.2511,-40.32002 -14.457,-50.73428 -7.3451,-10.59266 -18.0693,-10.85657 -45.4685,-0.92511 -17.41,6.28378 -19.0035,6.0258 -25.3422,-4.57961 -4.7587,-8.01666 -6.9789,-10.74616 -14.8729,-18.59 -7.8847,-7.71861 -11.4358,-12.23699 -12.9221,-16.0921 -1.5051,-4.10559 -1.2971,-4.68793 5.9808,-16.75821 11.542,-19.00241 14.7317,-28.49838 12.382,-37.13699 -2.0193,-7.59304 -7.034,-12.31618 -23.0494,-21.81606 -16.0106,-9.43721 -22.1802,-11.93265 -28.9423,-11.42407 -10.3311,0.77697 -16.8789,8.32169 -28.6138,33.13153 -7.0128,14.7579 -8.224,16.23425 -13.1078,16.60156 -1.5653,0.11766 -6.2787,-0.59821 -10.57729,-1.66024 -6.927,-1.68282 -9.08407,-1.89841 -19.73152,-1.97917 -14.93334,-0.13627 -19.95976,-0.82863 -22.97982,-3.30905 -2.20747,-1.72299 -2.28894,-1.96873 -4.72677,-12.61566 -5.03256,-22.54133 -8.56252,-30.96524 -15.46227,-37.30969 -4.53411,-4.19262 -8.80308,-5.69757 -15.58408,-5.43948 -3.01479,0.10108 -6.56959,0.55701 -7.92352,0.97374 z m 63.91182,162.43267 c 13.89579,1.41066 26.21455,6.96972 36.23925,16.35339 11.794,11.13967 19.0702,28.34902 19.5263,46.1343 0.1643,8.04737 -0.9065,14.73938 -3.4753,21.60706 -7.8036,20.98805 -28.3468,37.51913 -53.01227,42.77436 -7.87172,1.66243 -22.7533,2.21498 -29.07906,0.99062 -19.98853,-3.72296 -34.27902,-13.73032 -43.60248,-30.53385 -6.98087,-12.44609 -10.12315,-30.78493 -7.5916,-44.00942 2.35174,-12.26647 9.64984,-24.90493 19.26708,-33.49905 16.82267,-14.92897 39.19926,-22.15293 61.72808,-19.81741 z"
     inkscape:connector-curvature="0" >
   <animateTransform 
      repeatCount="indefinite"
      attributeName="transform" type="rotate"
      from="0 960 825" to="-360 960 825" begin="0" dur="7s" />
    </path>
  <circle
     r="416.18951"
     cy="637.06793"
     cx="700.91193"
     id="circle881"
     style="opacity:1;vector-effect:none;fill:#191919;fill-opacity:1;stroke:none;stroke-width:16.85541534;stroke-linecap:round;stroke-linejoin:miter;stroke-miterlimit:4;stroke-dasharray:none;stroke-dashoffset:0;stroke-opacity:1;paint-order:stroke fill markers" />
  <circle
     style="opacity:1;vector-effect:none;fill:#068de9;fill-opacity:1;stroke:none;stroke-width:16.2207222;stroke-linecap:round;stroke-linejoin:miter;stroke-miterlimit:4;stroke-dasharray:none;stroke-dashoffset:0;stroke-opacity:1;paint-order:stroke fill markers"
     id="path831"
     cx="700.91193"
     cy="637.06793"
     r="400.51788" >
<animate attributeName="r" begin="23s" dur="10s" repeatCount="indefinite" values="400;415;399;420;400"/>
   </circle>
  <ellipse
     cy="637.06793"
     cx="702.03137"
     id="circle851"
     style="opacity:1;vector-effect:none;fill:#def1fe;fill-opacity:1;stroke:none;stroke-width:15.96943283;stroke-linecap:round;stroke-linejoin:miter;stroke-miterlimit:4;stroke-dasharray:none;stroke-dashoffset:0;stroke-opacity:1;paint-order:stroke fill markers"
     rx="388.20444"
     ry="400.51788" />
  <path
     d="M 699.67095,455.05552 810.41347,728.38018 643.13881,596.61674 Z M 896.40293,791.34364 726.05837,381.3979 c -4.86264,-11.823 -14.58627,-18.07907 -26.38742,-18.07907 -11.823,0 -22.2543,6.25607 -27.11694,18.07907 L 485.58947,831.05702 h 63.95757 L 623.55845,645.66111 844.4251,824.09496 c 8.88287,7.18278 15.29227,10.4313 23.62415,10.4313 16.68569,0 31.27028,-12.5088 31.27028,-30.56434 0,-2.93847 -1.03793,-7.60231 -2.9166,-12.61828 z"
     id="path20"
     style="fill:#000000;stroke-width:3.35465455"
     inkscape:connector-curvature="0" />
</svg>
