<svg xmlns="http://www.w3.org/2000/svg" xmlns:xlink="http://www.w3.org/1999/xlink" width="1218" height="321.94"><rect width="1218" height="321.94" rx="0" ry="0" class="a"/><svg height="303.94" viewBox="0 0 120 30.394" width="1200" x="9" xmlns="http://www.w3.org/2000/svg" xmlns:xlink="http://www.w3.org/1999/xlink" y="9"><style>@keyframes s{0%{transform:translateX(0)}.34%{transform:translateX(-120px)}.36%{transform:translateX(-240px)}9.32%{transform:translateX(-360px)}10.03%{transform:translateX(-480px)}10.71%{transform:translateX(-600px)}11.79%{transform:translateX(-720px)}12.72%{transform:translateX(-840px)}13.22%{transform:translateX(-960px)}14.18%{transform:translateX(-1080px)}14.87%{transform:translateX(-1200px)}15.55%{transform:translateX(-1320px)}17.48%{transform:translateX(-1440px)}17.81%{transform:translateX(-2160px)}17.83%{transform:translateX(-2280px)}17.85%{transform:translateX(-2400px)}24.28%{transform:translateX(-2520px)}24.93%{transform:translateX(-2640px)}25.75%{transform:translateX(-2760px)}26.43%{transform:translateX(-2880px)}27.23%{transform:translateX(-3000px)}30.44%{transform:translateX(-3120px)}31.77%{transform:translateX(-3240px)}32.66%{transform:translateX(-3360px)}33.1%{transform:translateX(-3480px)}36.35%{transform:translateX(-3600px)}36.96%{transform:translateX(-3720px)}37.96%{transform:translateX(-3840px)}38.64%{transform:translateX(-3960px)}41.04%{transform:translateX(-4080px)}42.43%{transform:translateX(-4320px)}43.87%{transform:translateX(-4440px)}43.9%{transform:translateX(-4560px)}47.45%{transform:translateX(-4680px)}47.5%{transform:translateX(-4800px)}48.79%{transform:translateX(-4920px)}48.8%{transform:translateX(-5160px)}49.12%{transform:translateX(-5280px)}49.15%{transform:translateX(-5400px)}58.11%{transform:translateX(-5520px)}65.34%{transform:translateX(-5640px)}70.75%{transform:translateX(-5760px)}75.76%{transform:translateX(-5880px)}83.96%{transform:translateX(-6000px)}92.91%{transform:translateX(-6120px)}95.86%{transform:translateX(-6240px)}96.04%{transform:translateX(-6360px)}96.22%{transform:translateX(-6480px)}96.4%{transform:translateX(-6600px)}96.58%{transform:translateX(-6720px)}96.76%{transform:translateX(-6840px)}96.94%{transform:translateX(-6960px)}97.12%{transform:translateX(-7080px)}97.3%{transform:translateX(-7200px)}to{transform:translateX(-7320px)}}.a{fill:#282d35}.c,.d,.e,.g{fill:#dbab79;font-weight:700}.d,.e,.g{fill:#a8cc8c}.e,.g{fill:#66c2cd}.g{fill:#d290e4}.h{fill:#b9c0cb}.i{fill:#444}.l{fill:#f8f8f2}.m{fill:#f92672}.n{fill:#e6db74}.o{fill:#a8cc8c}.p{fill:#dbab79}</style><g font-size="1.67" font-family="Monaco,Consolas,Menlo,'Bitstream Vera Sans Mono','Powerline Symbols',monospace"><defs><symbol id="1"><text x="1.002" y="1.67" class="c">❤</text><text x="3.006" y="1.67" class="d">lilian</text><text x="9.018" y="1.67" class="e">@</text><text x="10.02" y="1.67" class="d">rainbowdash.wingcon.com</text><text x="34.068" y="1.67" fill="#71bef2" font-weight="700">&lt;13:37&gt;</text><text x="43.086" y="1.67" class="g">0</text><text x="46.092" y="1.67" class="e">~</text></symbol><symbol id="2"><text x="1.002" y="1.67" class="c">$</text></symbol><symbol id="3"><text x="1.002" y="1.67" class="c">$</text><text x="3.006" y="1.67" class="h">bat</text></symbol><symbol id="4"><text x="1.002" y="1.67" class="c">$</text><text x="3.006" y="1.67" class="h">bat</text><text x="7.014" y="1.67" class="h">bash.yml</text></symbol><symbol id="5"><text y="1.67" class="i">───────┬────────────────────────────────────────────────────────────────────────────</text></symbol><symbol id="6"><text x="7.014" y="1.67" class="i">│</text><text x="9.018" y="1.67" class="h">File:</text><text x="15.03" y="1.67" fill="#b9c0cb" font-weight="700">bash.yml</text></symbol><symbol id="7"><text y="1.67" class="i">───────┼────────────────────────────────────────────────────────────────────────────</text></symbol><symbol id="8"><text x="3.006" y="1.67" class="i">1</text><text x="7.014" y="1.67" class="i">│</text><text x="9.018" y="1.67" fill="#a6e22e">---</text></symbol><symbol id="9"><text x="3.006" y="1.67" class="i">2</text><text x="7.014" y="1.67" class="i">│</text><text x="9.018" y="1.67" class="l">-</text><text x="11.022" y="1.67" class="m">name</text><text x="15.03" y="1.67" class="l">:</text><text x="17.034" y="1.67" class="n">run</text><text x="21.042" y="1.67" class="n">bash</text><text x="26.052" y="1.67" class="n">commands</text></symbol><symbol id="10"><text x="3.006" y="1.67" class="i">3</text><text x="7.014" y="1.67" class="i">│</text><text x="11.022" y="1.67" class="m">hosts</text><text x="16.032" y="1.67" class="l">:</text><text x="18.036" y="1.67" class="n">localhost</text></symbol><symbol id="11"><text x="3.006" y="1.67" class="i">4</text><text x="7.014" y="1.67" class="i">│</text><text x="11.022" y="1.67" class="m">tasks</text><text x="16.032" y="1.67" class="l">:</text></symbol><symbol id="12"><text x="3.006" y="1.67" class="i">5</text><text x="7.014" y="1.67" class="i">│</text><text x="13.026" y="1.67" class="l">-</text><text x="15.03" y="1.67" class="m">name</text><text x="19.038" y="1.67" class="l">:</text><text x="21.042" y="1.67" class="n">run</text><text x="25.05" y="1.67" class="n">whoami</text><text x="32.064" y="1.67" class="n">and</text><text x="36.072" y="1.67" class="n">ddate</text><text x="42.084" y="1.67" class="n">from</text><text x="47.094" y="1.67" class="n">shell</text></symbol><symbol id="13"><text x="3.006" y="1.67" class="i">6</text><text x="7.014" y="1.67" class="i">│</text><text x="15.03" y="1.67" class="m">shell</text><text x="20.04" y="1.67" class="l">:</text><text x="22.044" y="1.67" class="m">|</text></symbol><symbol id="14"><text x="3.006" y="1.67" class="i">7</text><text x="7.014" y="1.67" class="i">│</text><text x="17.034" y="1.67" class="n">whoami</text></symbol><symbol id="15"><text x="3.006" y="1.67" class="i">8</text><text x="7.014" y="1.67" class="i">│</text><text x="17.034" y="1.67" class="n">ddate</text></symbol><symbol id="16"><text y="1.67" class="i">───────┴────────────────────────────────────────────────────────────────────────────</text></symbol><symbol id="17"><text x="1.002" y="1.67" class="c">$</text><text x="3.006" y="1.67" class="h">ansible-playbook</text><text x="20.04" y="1.67" class="h">bash.yml</text></symbol><symbol id="18"><text x="1.002" y="1.67" class="g">[WARNING]:</text><text x="12.024" y="1.67" class="g">No</text><text x="15.03" y="1.67" class="g">inventory</text><text x="25.05" y="1.67" class="g">was</text><text x="29.058" y="1.67" class="g">parsed,</text><text x="37.074" y="1.67" class="g">only</text><text x="42.084" y="1.67" class="g">implicit</text><text x="51.102" y="1.67" class="g">localhost</text><text x="61.122" y="1.67" class="g">is</text><text x="64.128" y="1.67" class="g">available</text></symbol><symbol id="19"><text x="1.002" y="1.67" class="g">[WARNING]:</text><text x="12.024" y="1.67" class="g">provided</text><text x="21.042" y="1.67" class="g">hosts</text><text x="27.054" y="1.67" class="g">list</text><text x="32.064" y="1.67" class="g">is</text><text x="35.07" y="1.67" class="g">empty,</text><text x="42.084" y="1.67" class="g">only</text><text x="47.094" y="1.67" class="g">localhost</text><text x="57.114" y="1.67" class="g">is</text><text x="60.12" y="1.67" class="g">available.</text><text x="71.142" y="1.67" class="g">Note</text><text x="76.152" y="1.67" class="g">that</text></symbol><symbol id="20"><text y="1.67" class="g">the</text><text x="4.008" y="1.67" class="g">implicit</text><text x="13.026" y="1.67" class="g">localhost</text><text x="23.046" y="1.67" class="g">does</text><text x="28.056" y="1.67" class="g">not</text><text x="32.064" y="1.67" class="g">match</text><text x="38.076" y="1.67" class="g">&apos;all&apos;</text></symbol><symbol id="21"><text y="1.67" class="h">PLAY</text><text x="5.01" y="1.67" class="h">[run</text><text x="10.02" y="1.67" class="h">bash</text><text x="15.03" y="1.67" class="h">commands]</text><text x="25.05" y="1.67" class="h">***********************************************************</text></symbol><symbol id="22"><text y="1.67" class="h">TASK</text><text x="5.01" y="1.67" class="h">[Gathering</text><text x="16.032" y="1.67" class="h">Facts]</text><text x="23.046" y="1.67" class="h">*************************************************************</text></symbol><symbol id="23"><text y="1.67" class="o">ok:</text><text x="4.008" y="1.67" class="o">[localhost]</text></symbol><symbol id="24"><text y="1.67" class="h">TASK</text><text x="5.01" y="1.67" class="h">[run</text><text x="10.02" y="1.67" class="h">whoami</text><text x="17.034" y="1.67" class="h">and</text><text x="21.042" y="1.67" class="h">ddate</text><text x="27.054" y="1.67" class="h">from</text><text x="32.064" y="1.67" class="h">shell]</text><text x="39.078" y="1.67" class="h">*********************************************</text></symbol><symbol id="25"><text y="1.67" class="p">changed:</text><text x="9.018" y="1.67" class="p">[localhost]</text></symbol><symbol id="26"><text y="1.67" class="h">PLAY</text><text x="5.01" y="1.67" class="h">RECAP</text><text x="11.022" y="1.67" class="h">*************************************************************************</text></symbol><symbol id="27"><text y="1.67" class="p">localhost</text><text x="27.054" y="1.67" class="h">:</text><text x="29.058" y="1.67" class="o">ok=2</text><text x="37.074" y="1.67" class="p">changed=1</text><text x="50.1" y="1.67" class="h">unreachable=0</text><text x="67.134" y="1.67" class="h">failed=0</text><text x="79.158" y="1.67" class="h">skipped=0</text><text x="92.184" y="1.67" class="h">rescued=0</text><text x="105.21" y="1.67" class="h">ignored=0</text></symbol><symbol id="a"><path fill="transparent" d="M0 0h120v15H0z"/></symbol><symbol id="b"><path fill="#6f7683" d="M0 0h1.102v2.171H0z"/></symbol></defs><path class="a" d="M0 0h120v30.394H0z"/><g style="animation-duration:22.341597999999998s;animation-iteration-count:infinite;animation-name:s;animation-timing-function:steps(1,end)"><svg width="7440"><svg><use xlink:href="#a"/><use xlink:href="#b" x="-.004"/></svg><svg x="120"><use xlink:href="#a"/><use xlink:href="#b" x="-.004"/></svg><svg x="240"><use xlink:href="#a"/><use xlink:href="#b" x="2.996" y="2.146"/><use xlink:href="#1"/><use xlink:href="#2" y="2.171"/></svg><svg x="360"><use xlink:href="#a"/><use xlink:href="#b" x="3.996" y="2.146"/><use xlink:href="#1"/><text x="1.002" y="3.841" class="c">$</text><text x="3.006" y="3.841" class="h">b</text></svg><svg x="480"><use xlink:href="#a"/><use xlink:href="#b" x="4.996" y="2.146"/><use xlink:href="#1"/><text x="1.002" y="3.841" class="c">$</text><text x="3.006" y="3.841" class="h">ba</text></svg><svg x="600"><use xlink:href="#a"/><use xlink:href="#b" x="5.996" y="2.146"/><use xlink:href="#1"/><use xlink:href="#3" y="2.171"/></svg><svg x="720"><use xlink:href="#a"/><use xlink:href="#b" x="6.996" y="2.146"/><use xlink:href="#1"/><use xlink:href="#3" y="2.171"/></svg><svg x="840"><use xlink:href="#a"/><use xlink:href="#b" x="7.996" y="2.146"/><use xlink:href="#1"/><text x="1.002" y="3.841" class="c">$</text><text x="3.006" y="3.841" class="h">bat</text><text x="7.014" y="3.841" class="h">b</text></svg><svg x="960"><use xlink:href="#a"/><use xlink:href="#b" x="8.996" y="2.146"/><use xlink:href="#1"/><text x="1.002" y="3.841" class="c">$</text><text x="3.006" y="3.841" class="h">bat</text><text x="7.014" y="3.841" class="h">ba</text></svg><svg x="1080"><use xlink:href="#a"/><use xlink:href="#b" x="9.996" y="2.146"/><use xlink:href="#1"/><text x="1.002" y="3.841" class="c">$</text><text x="3.006" y="3.841" class="h">bat</text><text x="7.014" y="3.841" class="h">bas</text></svg><svg x="1200"><use xlink:href="#a"/><use xlink:href="#b" x="10.996" y="2.146"/><use xlink:href="#1"/><text x="1.002" y="3.841" class="c">$</text><text x="3.006" y="3.841" class="h">bat</text><text x="7.014" y="3.841" class="h">bash</text></svg><svg x="1320"><use xlink:href="#a"/><use xlink:href="#b" x="15.996" y="2.146"/><use xlink:href="#1"/><use xlink:href="#4" y="2.171"/></svg><svg x="1440"><use xlink:href="#a"/><use xlink:href="#b" x="-.004" y="4.317"/><use xlink:href="#1"/><use xlink:href="#4" y="2.171"/></svg><svg x="1560"><use xlink:href="#a"/><use xlink:href="#b" x="-.004" y="4.317"/><use xlink:href="#1"/><use xlink:href="#4" y="2.171"/></svg><svg x="1680"><use xlink:href="#a"/><use xlink:href="#b" x="-.004" y="13.001"/><use xlink:href="#1"/><use xlink:href="#4" y="2.171"/><use xlink:href="#5" y="4.342"/><use xlink:href="#6" y="6.513"/><use xlink:href="#7" y="8.684"/><use xlink:href="#8" y="10.855"/></svg><svg x="1800"><use xlink:href="#a"/><use xlink:href="#b" x="-.004" y="15.172"/><use xlink:href="#1"/><use xlink:href="#4" y="2.171"/><use xlink:href="#5" y="4.342"/><use xlink:href="#6" y="6.513"/><use xlink:href="#7" y="8.684"/><use xlink:href="#8" y="10.855"/><use xlink:href="#9" y="13.026"/></svg><svg x="1920"><use xlink:href="#a"/><use xlink:href="#b" x="-.004" y="19.514"/><use xlink:href="#1"/><use xlink:href="#4" y="2.171"/><use xlink:href="#5" y="4.342"/><use xlink:href="#6" y="6.513"/><use xlink:href="#7" y="8.684"/><use xlink:href="#8" y="10.855"/><use xlink:href="#9" y="13.026"/><use xlink:href="#10" y="15.197"/><use xlink:href="#11" y="17.368"/></svg><svg x="2040"><use xlink:href="#a"/><use xlink:href="#b" x="-.004" y="30.369"/><use xlink:href="#1"/><use xlink:href="#4" y="2.171"/><use xlink:href="#5" y="4.342"/><use xlink:href="#6" y="6.513"/><use xlink:href="#7" y="8.684"/><use xlink:href="#8" y="10.855"/><use xlink:href="#9" y="13.026"/><use xlink:href="#10" y="15.197"/><use xlink:href="#11" y="17.368"/><use xlink:href="#12" y="19.539"/><use xlink:href="#13" y="21.71"/><use xlink:href="#14" y="23.881"/><use xlink:href="#15" y="26.052"/><use xlink:href="#16" y="28.223"/></svg><svg x="2160"><use xlink:href="#a"/><use xlink:href="#b" x="-.004" y="30.369"/><use xlink:href="#1"/><use xlink:href="#4" y="2.171"/><use xlink:href="#5" y="4.342"/><use xlink:href="#6" y="6.513"/><use xlink:href="#7" y="8.684"/><use xlink:href="#8" y="10.855"/><use xlink:href="#9" y="13.026"/><use xlink:href="#10" y="15.197"/><use xlink:href="#11" y="17.368"/><use xlink:href="#12" y="19.539"/><use xlink:href="#13" y="21.71"/><use xlink:href="#14" y="23.881"/><use xlink:href="#15" y="26.052"/><use xlink:href="#16" y="28.223"/></svg><svg x="2280"><use xlink:href="#a"/><use xlink:href="#b" x="-.004" y="30.369"/><use xlink:href="#1"/><use xlink:href="#4" y="2.171"/><use xlink:href="#5" y="4.342"/><use xlink:href="#6" y="6.513"/><use xlink:href="#7" y="8.684"/><use xlink:href="#8" y="10.855"/><use xlink:href="#9" y="13.026"/><use xlink:href="#10" y="15.197"/><use xlink:href="#11" y="17.368"/><use xlink:href="#12" y="19.539"/><use xlink:href="#13" y="21.71"/><use xlink:href="#14" y="23.881"/><use xlink:href="#15" y="26.052"/><use xlink:href="#16" y="28.223"/></svg><svg x="2400"><use xlink:href="#a"/><use xlink:href="#b" x="2.996" y="30.369"/><use xlink:href="#4"/><use xlink:href="#5" y="2.171"/><use xlink:href="#6" y="4.342"/><use xlink:href="#7" y="6.513"/><use xlink:href="#8" y="8.684"/><use xlink:href="#9" y="10.855"/><use xlink:href="#10" y="13.026"/><use xlink:href="#11" y="15.197"/><use xlink:href="#12" y="17.368"/><use xlink:href="#13" y="19.539"/><use xlink:href="#14" y="21.71"/><use xlink:href="#15" y="23.881"/><use xlink:href="#16" y="26.052"/><use xlink:href="#1" y="28.223"/><use xlink:href="#2" y="30.394"/></svg><svg x="2520"><use xlink:href="#a"/><use xlink:href="#b" x="3.996" y="30.369"/><use xlink:href="#4"/><use xlink:href="#5" y="2.171"/><use xlink:href="#6" y="4.342"/><use xlink:href="#7" y="6.513"/><use xlink:href="#8" y="8.684"/><use xlink:href="#9" y="10.855"/><use xlink:href="#10" y="13.026"/><use xlink:href="#11" y="15.197"/><use xlink:href="#12" y="17.368"/><use xlink:href="#13" y="19.539"/><use xlink:href="#14" y="21.71"/><use xlink:href="#15" y="23.881"/><use xlink:href="#16" y="26.052"/><use xlink:href="#1" y="28.223"/><text x="1.002" y="32.064" class="c">$</text><text x="3.006" y="32.064" class="h">a</text></svg><svg x="2640"><use xlink:href="#a"/><use xlink:href="#b" x="4.996" y="30.369"/><use xlink:href="#4"/><use xlink:href="#5" y="2.171"/><use xlink:href="#6" y="4.342"/><use xlink:href="#7" y="6.513"/><use xlink:href="#8" y="8.684"/><use xlink:href="#9" y="10.855"/><use xlink:href="#10" y="13.026"/><use xlink:href="#11" y="15.197"/><use xlink:href="#12" y="17.368"/><use xlink:href="#13" y="19.539"/><use xlink:href="#14" y="21.71"/><use xlink:href="#15" y="23.881"/><use xlink:href="#16" y="26.052"/><use xlink:href="#1" y="28.223"/><text x="1.002" y="32.064" class="c">$</text><text x="3.006" y="32.064" class="h">an</text></svg><svg x="2760"><use xlink:href="#a"/><use xlink:href="#b" x="5.996" y="30.369"/><use xlink:href="#4"/><use xlink:href="#5" y="2.171"/><use xlink:href="#6" y="4.342"/><use xlink:href="#7" y="6.513"/><use xlink:href="#8" y="8.684"/><use xlink:href="#9" y="10.855"/><use xlink:href="#10" y="13.026"/><use xlink:href="#11" y="15.197"/><use xlink:href="#12" y="17.368"/><use xlink:href="#13" y="19.539"/><use xlink:href="#14" y="21.71"/><use xlink:href="#15" y="23.881"/><use xlink:href="#16" y="26.052"/><use xlink:href="#1" y="28.223"/><text x="1.002" y="32.064" class="c">$</text><text x="3.006" y="32.064" class="h">ans</text></svg><svg x="2880"><use xlink:href="#a"/><use xlink:href="#b" x="6.996" y="30.369"/><use xlink:href="#4"/><use xlink:href="#5" y="2.171"/><use xlink:href="#6" y="4.342"/><use xlink:href="#7" y="6.513"/><use xlink:href="#8" y="8.684"/><use xlink:href="#9" y="10.855"/><use xlink:href="#10" y="13.026"/><use xlink:href="#11" y="15.197"/><use xlink:href="#12" y="17.368"/><use xlink:href="#13" y="19.539"/><use xlink:href="#14" y="21.71"/><use xlink:href="#15" y="23.881"/><use xlink:href="#16" y="26.052"/><use xlink:href="#1" y="28.223"/><text x="1.002" y="32.064" class="c">$</text><text x="3.006" y="32.064" class="h">ansi</text></svg><svg x="3000"><use xlink:href="#a"/><use xlink:href="#b" x="9.996" y="30.369"/><use xlink:href="#4"/><use xlink:href="#5" y="2.171"/><use xlink:href="#6" y="4.342"/><use xlink:href="#7" y="6.513"/><use xlink:href="#8" y="8.684"/><use xlink:href="#9" y="10.855"/><use xlink:href="#10" y="13.026"/><use xlink:href="#11" y="15.197"/><use xlink:href="#12" y="17.368"/><use xlink:href="#13" y="19.539"/><use xlink:href="#14" y="21.71"/><use xlink:href="#15" y="23.881"/><use xlink:href="#16" y="26.052"/><use xlink:href="#1" y="28.223"/><text x="1.002" y="32.064" class="c">$</text><text x="3.006" y="32.064" class="h">ansible</text></svg><svg x="3120"><use xlink:href="#a"/><use xlink:href="#b" x="10.996" y="30.369"/><use xlink:href="#4"/><use xlink:href="#5" y="2.171"/><use xlink:href="#6" y="4.342"/><use xlink:href="#7" y="6.513"/><use xlink:href="#8" y="8.684"/><use xlink:href="#9" y="10.855"/><use xlink:href="#10" y="13.026"/><use xlink:href="#11" y="15.197"/><use xlink:href="#12" y="17.368"/><use xlink:href="#13" y="19.539"/><use xlink:href="#14" y="21.71"/><use xlink:href="#15" y="23.881"/><use xlink:href="#16" y="26.052"/><use xlink:href="#1" y="28.223"/><text x="1.002" y="32.064" class="c">$</text><text x="3.006" y="32.064" class="h">ansible-</text></svg><svg x="3240"><use xlink:href="#a"/><use xlink:href="#b" x="11.996" y="30.369"/><use xlink:href="#4"/><use xlink:href="#5" y="2.171"/><use xlink:href="#6" y="4.342"/><use xlink:href="#7" y="6.513"/><use xlink:href="#8" y="8.684"/><use xlink:href="#9" y="10.855"/><use xlink:href="#10" y="13.026"/><use xlink:href="#11" y="15.197"/><use xlink:href="#12" y="17.368"/><use xlink:href="#13" y="19.539"/><use xlink:href="#14" y="21.71"/><use xlink:href="#15" y="23.881"/><use xlink:href="#16" y="26.052"/><use xlink:href="#1" y="28.223"/><text x="1.002" y="32.064" class="c">$</text><text x="3.006" y="32.064" class="h">ansible-p</text></svg><svg x="3360"><use xlink:href="#a"/><use xlink:href="#b" x="12.996" y="30.369"/><use xlink:href="#4"/><use xlink:href="#5" y="2.171"/><use xlink:href="#6" y="4.342"/><use xlink:href="#7" y="6.513"/><use xlink:href="#8" y="8.684"/><use xlink:href="#9" y="10.855"/><use xlink:href="#10" y="13.026"/><use xlink:href="#11" y="15.197"/><use xlink:href="#12" y="17.368"/><use xlink:href="#13" y="19.539"/><use xlink:href="#14" y="21.71"/><use xlink:href="#15" y="23.881"/><use xlink:href="#16" y="26.052"/><use xlink:href="#1" y="28.223"/><text x="1.002" y="32.064" class="c">$</text><text x="3.006" y="32.064" class="h">ansible-pl</text></svg><svg x="3480"><use xlink:href="#a"/><use xlink:href="#b" x="19.996" y="30.369"/><use xlink:href="#4"/><use xlink:href="#5" y="2.171"/><use xlink:href="#6" y="4.342"/><use xlink:href="#7" y="6.513"/><use xlink:href="#8" y="8.684"/><use xlink:href="#9" y="10.855"/><use xlink:href="#10" y="13.026"/><use xlink:href="#11" y="15.197"/><use xlink:href="#12" y="17.368"/><use xlink:href="#13" y="19.539"/><use xlink:href="#14" y="21.71"/><use xlink:href="#15" y="23.881"/><use xlink:href="#16" y="26.052"/><use xlink:href="#1" y="28.223"/><text x="1.002" y="32.064" class="c">$</text><text x="3.006" y="32.064" class="h">ansible-playbook</text></svg><svg x="3600"><use xlink:href="#a"/><use xlink:href="#b" x="20.996" y="30.369"/><use xlink:href="#4"/><use xlink:href="#5" y="2.171"/><use xlink:href="#6" y="4.342"/><use xlink:href="#7" y="6.513"/><use xlink:href="#8" y="8.684"/><use xlink:href="#9" y="10.855"/><use xlink:href="#10" y="13.026"/><use xlink:href="#11" y="15.197"/><use xlink:href="#12" y="17.368"/><use xlink:href="#13" y="19.539"/><use xlink:href="#14" y="21.71"/><use xlink:href="#15" y="23.881"/><use xlink:href="#16" y="26.052"/><use xlink:href="#1" y="28.223"/><text x="1.002" y="32.064" class="c">$</text><text x="3.006" y="32.064" class="h">ansible-playbook</text><text x="20.04" y="32.064" class="h">b</text></svg><svg x="3720"><use xlink:href="#a"/><use xlink:href="#b" x="21.996" y="30.369"/><use xlink:href="#4"/><use xlink:href="#5" y="2.171"/><use xlink:href="#6" y="4.342"/><use xlink:href="#7" y="6.513"/><use xlink:href="#8" y="8.684"/><use xlink:href="#9" y="10.855"/><use xlink:href="#10" y="13.026"/><use xlink:href="#11" y="15.197"/><use xlink:href="#12" y="17.368"/><use xlink:href="#13" y="19.539"/><use xlink:href="#14" y="21.71"/><use xlink:href="#15" y="23.881"/><use xlink:href="#16" y="26.052"/><use xlink:href="#1" y="28.223"/><text x="1.002" y="32.064" class="c">$</text><text x="3.006" y="32.064" class="h">ansible-playbook</text><text x="20.04" y="32.064" class="h">ba</text></svg><svg x="3840"><use xlink:href="#a"/><use xlink:href="#b" x="22.996" y="30.369"/><use xlink:href="#4"/><use xlink:href="#5" y="2.171"/><use xlink:href="#6" y="4.342"/><use xlink:href="#7" y="6.513"/><use xlink:href="#8" y="8.684"/><use xlink:href="#9" y="10.855"/><use xlink:href="#10" y="13.026"/><use xlink:href="#11" y="15.197"/><use xlink:href="#12" y="17.368"/><use xlink:href="#13" y="19.539"/><use xlink:href="#14" y="21.71"/><use xlink:href="#15" y="23.881"/><use xlink:href="#16" y="26.052"/><use xlink:href="#1" y="28.223"/><text x="1.002" y="32.064" class="c">$</text><text x="3.006" y="32.064" class="h">ansible-playbook</text><text x="20.04" y="32.064" class="h">bas</text></svg><svg x="3960"><use xlink:href="#a"/><use xlink:href="#b" x="28.996" y="30.369"/><use xlink:href="#4"/><use xlink:href="#5" y="2.171"/><use xlink:href="#6" y="4.342"/><use xlink:href="#7" y="6.513"/><use xlink:href="#8" y="8.684"/><use xlink:href="#9" y="10.855"/><use xlink:href="#10" y="13.026"/><use xlink:href="#11" y="15.197"/><use xlink:href="#12" y="17.368"/><use xlink:href="#13" y="19.539"/><use xlink:href="#14" y="21.71"/><use xlink:href="#15" y="23.881"/><use xlink:href="#16" y="26.052"/><use xlink:href="#1" y="28.223"/><use xlink:href="#17" y="30.394"/></svg><svg x="4080"><use xlink:href="#a"/><use xlink:href="#b" x="-.004" y="30.369"/><use xlink:href="#5"/><use xlink:href="#6" y="2.171"/><use xlink:href="#7" y="4.342"/><use xlink:href="#8" y="6.513"/><use xlink:href="#9" y="8.684"/><use xlink:href="#10" y="10.855"/><use xlink:href="#11" y="13.026"/><use xlink:href="#12" y="15.197"/><use xlink:href="#13" y="17.368"/><use xlink:href="#14" y="19.539"/><use xlink:href="#15" y="21.71"/><use xlink:href="#16" y="23.881"/><use xlink:href="#1" y="26.052"/><use xlink:href="#17" y="28.223"/></svg><svg x="4200"><use xlink:href="#a"/><use xlink:href="#b" x="-.004" y="30.369"/><use xlink:href="#7"/><use xlink:href="#8" y="2.171"/><use xlink:href="#9" y="4.342"/><use xlink:href="#10" y="6.513"/><use xlink:href="#11" y="8.684"/><use xlink:href="#12" y="10.855"/><use xlink:href="#13" y="13.026"/><use xlink:href="#14" y="15.197"/><use xlink:href="#15" y="17.368"/><use xlink:href="#16" y="19.539"/><use xlink:href="#1" y="21.71"/><use xlink:href="#17" y="23.881"/><use xlink:href="#18" y="26.052"/></svg><svg x="4320"><use xlink:href="#a"/><use xlink:href="#b" x="-.004" y="30.369"/><use xlink:href="#10"/><use xlink:href="#11" y="2.171"/><use xlink:href="#12" y="4.342"/><use xlink:href="#13" y="6.513"/><use xlink:href="#14" y="8.684"/><use xlink:href="#15" y="10.855"/><use xlink:href="#16" y="13.026"/><use xlink:href="#1" y="15.197"/><use xlink:href="#17" y="17.368"/><use xlink:href="#18" y="19.539"/><use xlink:href="#19" y="23.881"/><use xlink:href="#20" y="26.052"/></svg><svg x="4440"><use xlink:href="#a"/><use xlink:href="#b" x="-.004" y="30.369"/><use xlink:href="#12"/><use xlink:href="#13" y="2.171"/><use xlink:href="#14" y="4.342"/><use xlink:href="#15" y="6.513"/><use xlink:href="#16" y="8.684"/><use xlink:href="#1" y="10.855"/><use xlink:href="#17" y="13.026"/><use xlink:href="#18" y="15.197"/><use xlink:href="#19" y="19.539"/><use xlink:href="#20" y="21.71"/><use xlink:href="#21" y="28.223"/></svg><svg x="4560"><use xlink:href="#a"/><use xlink:href="#b" x="-.004" y="30.369"/><use xlink:href="#14"/><use xlink:href="#15" y="2.171"/><use xlink:href="#16" y="4.342"/><use xlink:href="#1" y="6.513"/><use xlink:href="#17" y="8.684"/><use xlink:href="#18" y="10.855"/><use xlink:href="#19" y="15.197"/><use xlink:href="#20" y="17.368"/><use xlink:href="#21" y="23.881"/><use xlink:href="#22" y="28.223"/></svg><svg x="4680"><use xlink:href="#a"/><use xlink:href="#b" x="-.004" y="30.369"/><use xlink:href="#15"/><use xlink:href="#16" y="2.171"/><use xlink:href="#1" y="4.342"/><use xlink:href="#17" y="6.513"/><use xlink:href="#18" y="8.684"/><use xlink:href="#19" y="13.026"/><use xlink:href="#20" y="15.197"/><use xlink:href="#21" y="21.71"/><use xlink:href="#22" y="26.052"/><use xlink:href="#23" y="28.223"/></svg><svg x="4800"><use xlink:href="#a"/><use xlink:href="#b" x="-.004" y="30.369"/><use xlink:href="#1"/><use xlink:href="#17" y="2.171"/><use xlink:href="#18" y="4.342"/><use xlink:href="#19" y="8.684"/><use xlink:href="#20" y="10.855"/><use xlink:href="#21" y="17.368"/><use xlink:href="#22" y="21.71"/><use xlink:href="#23" y="23.881"/><use xlink:href="#24" y="28.223"/></svg><svg x="4920"><use xlink:href="#a"/><use xlink:href="#b" x="-.004" y="30.369"/><use xlink:href="#17"/><use xlink:href="#18" y="2.171"/><use xlink:href="#19" y="6.513"/><use xlink:href="#20" y="8.684"/><use xlink:href="#21" y="15.197"/><use xlink:href="#22" y="19.539"/><use xlink:href="#23" y="21.71"/><use xlink:href="#24" y="26.052"/><use xlink:href="#25" y="28.223"/></svg><svg x="5040"><use xlink:href="#a"/><use xlink:href="#b" x="-.004" y="30.369"/><use xlink:href="#19" y="2.171"/><use xlink:href="#20" y="4.342"/><use xlink:href="#21" y="10.855"/><use xlink:href="#22" y="15.197"/><use xlink:href="#23" y="17.368"/><use xlink:href="#24" y="21.71"/><use xlink:href="#25" y="23.881"/><use xlink:href="#26" y="28.223"/></svg><svg x="5160"><use xlink:href="#a"/><use xlink:href="#b" x="-.004" y="30.369"/><use xlink:href="#20"/><use xlink:href="#21" y="6.513"/><use xlink:href="#22" y="10.855"/><use xlink:href="#23" y="13.026"/><use xlink:href="#24" y="17.368"/><use xlink:href="#25" y="19.539"/><use xlink:href="#26" y="23.881"/><use xlink:href="#27" y="26.052"/></svg><svg x="5280"><use xlink:href="#a"/><use xlink:href="#b" x="-.004" y="30.369"/><use xlink:href="#20"/><use xlink:href="#21" y="6.513"/><use xlink:href="#22" y="10.855"/><use xlink:href="#23" y="13.026"/><use xlink:href="#24" y="17.368"/><use xlink:href="#25" y="19.539"/><use xlink:href="#26" y="23.881"/><use xlink:href="#27" y="26.052"/></svg><svg x="5400"><use xlink:href="#a"/><use xlink:href="#b" x="2.996" y="30.369"/><use xlink:href="#21" y="4.342"/><use xlink:href="#22" y="8.684"/><use xlink:href="#23" y="10.855"/><use xlink:href="#24" y="15.197"/><use xlink:href="#25" y="17.368"/><use xlink:href="#26" y="21.71"/><use xlink:href="#27" y="23.881"/><use xlink:href="#1" y="28.223"/><use xlink:href="#2" y="30.394"/></svg><svg x="5520"><use xlink:href="#a"/><use xlink:href="#b" x="3.996" y="30.369"/><use xlink:href="#21" y="4.342"/><use xlink:href="#22" y="8.684"/><use xlink:href="#23" y="10.855"/><use xlink:href="#24" y="15.197"/><use xlink:href="#25" y="17.368"/><use xlink:href="#26" y="21.71"/><use xlink:href="#27" y="23.881"/><use xlink:href="#1" y="28.223"/><use xlink:href="#2" y="30.394"/></svg><svg x="5640"><use xlink:href="#a"/><use xlink:href="#b" x="4.996" y="30.369"/><use xlink:href="#21" y="4.342"/><use xlink:href="#22" y="8.684"/><use xlink:href="#23" y="10.855"/><use xlink:href="#24" y="15.197"/><use xlink:href="#25" y="17.368"/><use xlink:href="#26" y="21.71"/><use xlink:href="#27" y="23.881"/><use xlink:href="#1" y="28.223"/><use xlink:href="#2" y="30.394"/></svg><svg x="5760"><use xlink:href="#a"/><use xlink:href="#b" x="5.996" y="30.369"/><use xlink:href="#21" y="4.342"/><use xlink:href="#22" y="8.684"/><use xlink:href="#23" y="10.855"/><use xlink:href="#24" y="15.197"/><use xlink:href="#25" y="17.368"/><use xlink:href="#26" y="21.71"/><use xlink:href="#27" y="23.881"/><use xlink:href="#1" y="28.223"/><use xlink:href="#2" y="30.394"/></svg><svg x="5880"><use xlink:href="#a"/><use xlink:href="#b" x="6.996" y="30.369"/><use xlink:href="#21" y="4.342"/><use xlink:href="#22" y="8.684"/><use xlink:href="#23" y="10.855"/><use xlink:href="#24" y="15.197"/><use xlink:href="#25" y="17.368"/><use xlink:href="#26" y="21.71"/><use xlink:href="#27" y="23.881"/><use xlink:href="#1" y="28.223"/><use xlink:href="#2" y="30.394"/></svg><svg x="6000"><use xlink:href="#a"/><use xlink:href="#b" x="7.996" y="30.369"/><use xlink:href="#21" y="4.342"/><use xlink:href="#22" y="8.684"/><use xlink:href="#23" y="10.855"/><use xlink:href="#24" y="15.197"/><use xlink:href="#25" y="17.368"/><use xlink:href="#26" y="21.71"/><use xlink:href="#27" y="23.881"/><use xlink:href="#1" y="28.223"/><use xlink:href="#2" y="30.394"/></svg><svg x="6120"><use xlink:href="#a"/><use xlink:href="#b" x="6.996" y="30.369"/><use xlink:href="#21" y="4.342"/><use xlink:href="#22" y="8.684"/><use xlink:href="#23" y="10.855"/><use xlink:href="#24" y="15.197"/><use xlink:href="#25" y="17.368"/><use xlink:href="#26" y="21.71"/><use xlink:href="#27" y="23.881"/><use xlink:href="#1" y="28.223"/><use xlink:href="#2" y="30.394"/></svg><svg x="6240"><use xlink:href="#a"/><use xlink:href="#b" x="5.996" y="30.369"/><use xlink:href="#21" y="4.342"/><use xlink:href="#22" y="8.684"/><use xlink:href="#23" y="10.855"/><use xlink:href="#24" y="15.197"/><use xlink:href="#25" y="17.368"/><use xlink:href="#26" y="21.71"/><use xlink:href="#27" y="23.881"/><use xlink:href="#1" y="28.223"/><use xlink:href="#2" y="30.394"/></svg><svg x="6360"><use xlink:href="#a"/><use xlink:href="#b" x="4.996" y="30.369"/><use xlink:href="#21" y="4.342"/><use xlink:href="#22" y="8.684"/><use xlink:href="#23" y="10.855"/><use xlink:href="#24" y="15.197"/><use xlink:href="#25" y="17.368"/><use xlink:href="#26" y="21.71"/><use xlink:href="#27" y="23.881"/><use xlink:href="#1" y="28.223"/><use xlink:href="#2" y="30.394"/></svg><svg x="6480"><use xlink:href="#a"/><use xlink:href="#b" x="3.996" y="30.369"/><use xlink:href="#21" y="4.342"/><use xlink:href="#22" y="8.684"/><use xlink:href="#23" y="10.855"/><use xlink:href="#24" y="15.197"/><use xlink:href="#25" y="17.368"/><use xlink:href="#26" y="21.71"/><use xlink:href="#27" y="23.881"/><use xlink:href="#1" y="28.223"/><use xlink:href="#2" y="30.394"/></svg><svg x="6600"><use xlink:href="#a"/><use xlink:href="#b" x="2.996" y="30.369"/><use xlink:href="#21" y="4.342"/><use xlink:href="#22" y="8.684"/><use xlink:href="#23" y="10.855"/><use xlink:href="#24" y="15.197"/><use xlink:href="#25" y="17.368"/><use xlink:href="#26" y="21.71"/><use xlink:href="#27" y="23.881"/><use xlink:href="#1" y="28.223"/><use xlink:href="#2" y="30.394"/></svg><svg x="6720"><use xlink:href="#a"/><use xlink:href="#b" x="2.996" y="30.369"/><use xlink:href="#21" y="4.342"/><use xlink:href="#22" y="8.684"/><use xlink:href="#23" y="10.855"/><use xlink:href="#24" y="15.197"/><use xlink:href="#25" y="17.368"/><use xlink:href="#26" y="21.71"/><use xlink:href="#27" y="23.881"/><use xlink:href="#1" y="28.223"/><use xlink:href="#2" y="30.394"/></svg><svg x="6840"><use xlink:href="#a"/><use xlink:href="#b" x="2.996" y="30.369"/><use xlink:href="#21" y="4.342"/><use xlink:href="#22" y="8.684"/><use xlink:href="#23" y="10.855"/><use xlink:href="#24" y="15.197"/><use xlink:href="#25" y="17.368"/><use xlink:href="#26" y="21.71"/><use xlink:href="#27" y="23.881"/><use xlink:href="#1" y="28.223"/><use xlink:href="#2" y="30.394"/></svg><svg x="6960"><use xlink:href="#a"/><use xlink:href="#b" x="2.996" y="30.369"/><use xlink:href="#21" y="4.342"/><use xlink:href="#22" y="8.684"/><use xlink:href="#23" y="10.855"/><use xlink:href="#24" y="15.197"/><use xlink:href="#25" y="17.368"/><use xlink:href="#26" y="21.71"/><use xlink:href="#27" y="23.881"/><use xlink:href="#1" y="28.223"/><use xlink:href="#2" y="30.394"/></svg><svg x="7080"><use xlink:href="#a"/><use xlink:href="#b" x="2.996" y="30.369"/><use xlink:href="#21" y="4.342"/><use xlink:href="#22" y="8.684"/><use xlink:href="#23" y="10.855"/><use xlink:href="#24" y="15.197"/><use xlink:href="#25" y="17.368"/><use xlink:href="#26" y="21.71"/><use xlink:href="#27" y="23.881"/><use xlink:href="#1" y="28.223"/><use xlink:href="#2" y="30.394"/></svg><svg x="7200"><use xlink:href="#a"/><use xlink:href="#b" x="2.996" y="30.369"/><use xlink:href="#21" y="4.342"/><use xlink:href="#22" y="8.684"/><use xlink:href="#23" y="10.855"/><use xlink:href="#24" y="15.197"/><use xlink:href="#25" y="17.368"/><use xlink:href="#26" y="21.71"/><use xlink:href="#27" y="23.881"/><use xlink:href="#1" y="28.223"/><use xlink:href="#2" y="30.394"/></svg><svg x="7320"><use xlink:href="#a"/><use xlink:href="#b" x="-.004" y="30.369"/><use xlink:href="#21" y="2.171"/><use xlink:href="#22" y="6.513"/><use xlink:href="#23" y="8.684"/><use xlink:href="#24" y="13.026"/><use xlink:href="#25" y="15.197"/><use xlink:href="#26" y="19.539"/><use xlink:href="#27" y="21.71"/><use xlink:href="#1" y="26.052"/><text x="1.002" y="29.893" class="c">$</text><text x="3.006" y="29.893" class="h">exit</text></svg></svg></g></g></svg></svg>