<svg xmlns="http://www.w3.org/2000/svg" xmlns:xlink="http://www.w3.org/1999/xlink" width="748" height="365.36"><rect width="748" height="365.36" rx="0" ry="0" class="a"/><svg height="347.36" viewBox="0 0 73 34.736" width="730" x="9" xmlns="http://www.w3.org/2000/svg" xmlns:xlink="http://www.w3.org/1999/xlink" y="9"><style>@keyframes l{0%{transform:translateX(0)}.8%{transform:translateX(-146px)}10.7%{transform:translateX(-219px)}16.7%{transform:translateX(-292px)}16.8%{transform:translateX(-438px)}17.1%{transform:translateX(-584px)}26.9%{transform:translateX(-657px)}36.8%{transform:translateX(-730px)}39.8%{transform:translateX(-803px)}45.1%{transform:translateX(-876px)}45.8%{transform:translateX(-1022px)}55.6%{transform:translateX(-1095px)}61.5%{transform:translateX(-1241px)}61.6%{transform:translateX(-1314px)}61.8%{transform:translateX(-1387px)}71.7%{transform:translateX(-1460px)}81.5%{transform:translateX(-1533px)}84.4%{transform:translateX(-1606px)}89.4%{transform:translateX(-1679px)}90.1%{transform:translateX(-1752px)}90.2%{transform:translateX(-1825px)}to{transform:translateX(-1898px)}}.a{fill:#282d35}.c,.d,.e,.f,.g{fill:#dbab79;font-weight:700}.d,.e,.f,.g{fill:#a8cc8c}.e,.f,.g{fill:#66c2cd}.f,.g{fill:#71bef2}.g{fill:#d290e4}.h{fill:#b9c0cb}.i{fill:#dbab79}</style><g font-size="1.67" font-family="Monaco,Consolas,Menlo,'Bitstream Vera Sans Mono','Powerline Symbols',monospace"><defs><symbol id="1"><text x="1.002" y="1.67" class="c">❤</text><text x="3.006" y="1.67" class="d">lilian</text><text x="9.018" y="1.67" class="e">@</text><text x="10.02" y="1.67" class="d">rainbowdash.wingcon.com</text><text x="34.068" y="1.67" class="f">&lt;11:24&gt;</text><text x="43.086" y="1.67" class="g">0</text><text x="46.092" y="1.67" class="e">~</text></symbol><symbol id="2"><text x="1.002" y="1.67" class="c">$</text></symbol><symbol id="3"><text x="1.002" y="1.67" class="c">$</text><text x="3.006" y="1.67" class="h">whoami</text></symbol><symbol id="4"><text y="1.67" class="h">lilian</text></symbol><symbol id="5"><text x="1.002" y="1.67" class="c">❤</text><text x="3.006" y="1.67" class="d">lilian</text><text x="9.018" y="1.67" class="e">@</text><text x="10.02" y="1.67" class="d">rainbowdash.wingcon.com</text><text x="34.068" y="1.67" class="f">&lt;11:25&gt;</text><text x="43.086" y="1.67" class="g">0</text><text x="46.092" y="1.67" class="e">~</text></symbol><symbol id="6"><text x="1.002" y="1.67" class="c">$</text><text x="3.006" y="1.67" class="h">ansible</text><text x="11.022" y="1.67" class="h">localhost</text><text x="21.042" y="1.67" class="h">-m</text><text x="24.048" y="1.67" class="h">shell</text><text x="30.06" y="1.67" class="h">-a</text><text x="33.066" y="1.67" class="h">&quot;whoami&quot;</text></symbol><symbol id="7"><text x="1.002" y="1.67" class="g">[WARNING]:</text><text x="12.024" y="1.67" class="g">No</text><text x="15.03" y="1.67" class="g">inventory</text><text x="25.05" y="1.67" class="g">was</text><text x="29.058" y="1.67" class="g">parsed,</text><text x="37.074" y="1.67" class="g">only</text><text x="42.084" y="1.67" class="g">implicit</text><text x="51.102" y="1.67" class="g">localhost</text><text x="61.122" y="1.67" class="g">is</text><text x="64.128" y="1.67" class="g">available</text></symbol><symbol id="8"><text y="1.67" class="i">localhost</text><text x="10.02" y="1.67" class="i">|</text><text x="12.024" y="1.67" class="i">CHANGED</text><text x="20.04" y="1.67" class="i">|</text><text x="22.044" y="1.67" class="i">rc=0</text><text x="27.054" y="1.67" class="i">&gt;&gt;</text></symbol><symbol id="9"><text y="1.67" class="i">lilian</text></symbol><symbol id="10"><text x="1.002" y="1.67" class="c">$</text><text x="3.006" y="1.67" class="h">ddate</text></symbol><symbol id="11"><text y="1.67" class="h">Today</text><text x="6.012" y="1.67" class="h">is</text><text x="9.018" y="1.67" class="h">Pungenday,</text><text x="20.04" y="1.67" class="h">the</text><text x="24.048" y="1.67" class="h">64th</text><text x="29.058" y="1.67" class="h">day</text><text x="33.066" y="1.67" class="h">of</text><text x="36.072" y="1.67" class="h">Bureaucracy</text><text x="48.096" y="1.67" class="h">in</text><text x="51.102" y="1.67" class="h">the</text><text x="55.11" y="1.67" class="h">YOLD</text><text x="60.12" y="1.67" class="h">3185</text></symbol><symbol id="12"><text x="1.002" y="1.67" class="c">$</text><text x="3.006" y="1.67" class="h">ansible</text><text x="11.022" y="1.67" class="h">localhost</text><text x="21.042" y="1.67" class="h">-m</text><text x="24.048" y="1.67" class="h">shell</text><text x="30.06" y="1.67" class="h">-a</text><text x="33.066" y="1.67" class="h">&quot;ddate&quot;</text></symbol><symbol id="13"><text y="1.67" class="i">Today</text><text x="6.012" y="1.67" class="i">is</text><text x="9.018" y="1.67" class="i">Pungenday,</text><text x="20.04" y="1.67" class="i">the</text><text x="24.048" y="1.67" class="i">64th</text><text x="29.058" y="1.67" class="i">day</text><text x="33.066" y="1.67" class="i">of</text><text x="36.072" y="1.67" class="i">Bureaucracy</text><text x="48.096" y="1.67" class="i">in</text><text x="51.102" y="1.67" class="i">the</text><text x="55.11" y="1.67" class="i">YOLD</text><text x="60.12" y="1.67" class="i">3185</text></symbol><symbol id="a"><path fill="transparent" d="M0 0h73v17H0z"/></symbol><symbol id="b"><path fill="#6f7683" d="M0 0h1.102v2.171H0z"/></symbol></defs><path class="a" d="M0 0h73v34.736H0z"/><g style="animation-duration:10.156062000000006s;animation-iteration-count:infinite;animation-name:l;animation-timing-function:steps(1,end)"><svg width="1971"><svg><use xlink:href="#a"/><use xlink:href="#b" x="-.004"/></svg><svg x="73"><use xlink:href="#a"/><use xlink:href="#b" x="-.004"/></svg><svg x="146"><use xlink:href="#a"/><use xlink:href="#b" x="2.996" y="2.146"/><use xlink:href="#1"/><use xlink:href="#2" y="2.171"/></svg><svg x="219"><use xlink:href="#a"/><use xlink:href="#b" x="8.996" y="2.146"/><use xlink:href="#1"/><use xlink:href="#3" y="2.171"/></svg><svg x="292"><use xlink:href="#a"/><use xlink:href="#b" x="-.004" y="4.317"/><use xlink:href="#1"/><use xlink:href="#3" y="2.171"/></svg><svg x="365"><use xlink:href="#a"/><use xlink:href="#b" x="-.004" y="6.488"/><use xlink:href="#1"/><use xlink:href="#3" y="2.171"/><use xlink:href="#4" y="4.342"/></svg><svg x="438"><use xlink:href="#a"/><use xlink:href="#b" x="-.004" y="6.488"/><use xlink:href="#1"/><use xlink:href="#3" y="2.171"/><use xlink:href="#4" y="4.342"/></svg><svg x="511"><use xlink:href="#a"/><use xlink:href="#b" x="-.004" y="6.488"/><use xlink:href="#1"/><use xlink:href="#3" y="2.171"/><use xlink:href="#4" y="4.342"/><use xlink:href="#5" y="6.513"/></svg><svg x="584"><use xlink:href="#a"/><use xlink:href="#b" x="2.996" y="8.659"/><use xlink:href="#1"/><use xlink:href="#3" y="2.171"/><use xlink:href="#4" y="4.342"/><use xlink:href="#5" y="6.513"/><use xlink:href="#2" y="8.684"/></svg><svg x="657"><use xlink:href="#a"/><use xlink:href="#b" x="40.996" y="8.659"/><use xlink:href="#1"/><use xlink:href="#3" y="2.171"/><use xlink:href="#4" y="4.342"/><use xlink:href="#5" y="6.513"/><use xlink:href="#6" y="8.684"/></svg><svg x="730"><use xlink:href="#a"/><use xlink:href="#b" x="-.004" y="10.83"/><use xlink:href="#1"/><use xlink:href="#3" y="2.171"/><use xlink:href="#4" y="4.342"/><use xlink:href="#5" y="6.513"/><use xlink:href="#6" y="8.684"/></svg><svg x="803"><use xlink:href="#a"/><use xlink:href="#b" x="-.004" y="15.172"/><use xlink:href="#1"/><use xlink:href="#3" y="2.171"/><use xlink:href="#4" y="4.342"/><use xlink:href="#5" y="6.513"/><use xlink:href="#6" y="8.684"/><use xlink:href="#7" y="10.855"/></svg><svg x="876"><use xlink:href="#a"/><use xlink:href="#b" x="-.004" y="21.685"/><use xlink:href="#1"/><use xlink:href="#3" y="2.171"/><use xlink:href="#4" y="4.342"/><use xlink:href="#5" y="6.513"/><use xlink:href="#6" y="8.684"/><use xlink:href="#7" y="10.855"/><use xlink:href="#8" y="15.197"/><use xlink:href="#9" y="17.368"/></svg><svg x="949"><use xlink:href="#a"/><use xlink:href="#b" x="-.004" y="21.685"/><use xlink:href="#1"/><use xlink:href="#3" y="2.171"/><use xlink:href="#4" y="4.342"/><use xlink:href="#5" y="6.513"/><use xlink:href="#6" y="8.684"/><use xlink:href="#7" y="10.855"/><use xlink:href="#8" y="15.197"/><use xlink:href="#9" y="17.368"/></svg><svg x="1022"><use xlink:href="#a"/><use xlink:href="#b" x="2.996" y="23.856"/><use xlink:href="#1"/><use xlink:href="#3" y="2.171"/><use xlink:href="#4" y="4.342"/><use xlink:href="#5" y="6.513"/><use xlink:href="#6" y="8.684"/><use xlink:href="#7" y="10.855"/><use xlink:href="#8" y="15.197"/><use xlink:href="#9" y="17.368"/><use xlink:href="#5" y="21.71"/><use xlink:href="#2" y="23.881"/></svg><svg x="1095"><use xlink:href="#a"/><use xlink:href="#b" x="7.996" y="23.856"/><use xlink:href="#1"/><use xlink:href="#3" y="2.171"/><use xlink:href="#4" y="4.342"/><use xlink:href="#5" y="6.513"/><use xlink:href="#6" y="8.684"/><use xlink:href="#7" y="10.855"/><use xlink:href="#8" y="15.197"/><use xlink:href="#9" y="17.368"/><use xlink:href="#5" y="21.71"/><use xlink:href="#10" y="23.881"/></svg><svg x="1168"><use xlink:href="#a"/><use xlink:href="#b" x="-.004" y="26.027"/><use xlink:href="#1"/><use xlink:href="#3" y="2.171"/><use xlink:href="#4" y="4.342"/><use xlink:href="#5" y="6.513"/><use xlink:href="#6" y="8.684"/><use xlink:href="#7" y="10.855"/><use xlink:href="#8" y="15.197"/><use xlink:href="#9" y="17.368"/><use xlink:href="#5" y="21.71"/><use xlink:href="#10" y="23.881"/></svg><svg x="1241"><use xlink:href="#a"/><use xlink:href="#b" x="-.004" y="28.198"/><use xlink:href="#1"/><use xlink:href="#3" y="2.171"/><use xlink:href="#4" y="4.342"/><use xlink:href="#5" y="6.513"/><use xlink:href="#6" y="8.684"/><use xlink:href="#7" y="10.855"/><use xlink:href="#8" y="15.197"/><use xlink:href="#9" y="17.368"/><use xlink:href="#5" y="21.71"/><use xlink:href="#10" y="23.881"/><use xlink:href="#11" y="26.052"/></svg><svg x="1314"><use xlink:href="#a"/><use xlink:href="#b" x="-.004" y="28.198"/><use xlink:href="#1"/><use xlink:href="#3" y="2.171"/><use xlink:href="#4" y="4.342"/><use xlink:href="#5" y="6.513"/><use xlink:href="#6" y="8.684"/><use xlink:href="#7" y="10.855"/><use xlink:href="#8" y="15.197"/><use xlink:href="#9" y="17.368"/><use xlink:href="#5" y="21.71"/><use xlink:href="#10" y="23.881"/><use xlink:href="#11" y="26.052"/></svg><svg x="1387"><use xlink:href="#a"/><use xlink:href="#b" x="2.996" y="30.369"/><use xlink:href="#1"/><use xlink:href="#3" y="2.171"/><use xlink:href="#4" y="4.342"/><use xlink:href="#5" y="6.513"/><use xlink:href="#6" y="8.684"/><use xlink:href="#7" y="10.855"/><use xlink:href="#8" y="15.197"/><use xlink:href="#9" y="17.368"/><use xlink:href="#5" y="21.71"/><use xlink:href="#10" y="23.881"/><use xlink:href="#11" y="26.052"/><use xlink:href="#5" y="28.223"/><use xlink:href="#2" y="30.394"/></svg><svg x="1460"><use xlink:href="#a"/><use xlink:href="#b" x="39.996" y="30.369"/><use xlink:href="#1"/><use xlink:href="#3" y="2.171"/><use xlink:href="#4" y="4.342"/><use xlink:href="#5" y="6.513"/><use xlink:href="#6" y="8.684"/><use xlink:href="#7" y="10.855"/><use xlink:href="#8" y="15.197"/><use xlink:href="#9" y="17.368"/><use xlink:href="#5" y="21.71"/><use xlink:href="#10" y="23.881"/><use xlink:href="#11" y="26.052"/><use xlink:href="#5" y="28.223"/><use xlink:href="#12" y="30.394"/></svg><svg x="1533"><use xlink:href="#a"/><use xlink:href="#b" x="-.004" y="32.54"/><use xlink:href="#1"/><use xlink:href="#3" y="2.171"/><use xlink:href="#4" y="4.342"/><use xlink:href="#5" y="6.513"/><use xlink:href="#6" y="8.684"/><use xlink:href="#7" y="10.855"/><use xlink:href="#8" y="15.197"/><use xlink:href="#9" y="17.368"/><use xlink:href="#5" y="21.71"/><use xlink:href="#10" y="23.881"/><use xlink:href="#11" y="26.052"/><use xlink:href="#5" y="28.223"/><use xlink:href="#12" y="30.394"/></svg><svg x="1606"><use xlink:href="#a"/><use xlink:href="#b" x="-.004" y="34.711"/><use xlink:href="#3"/><use xlink:href="#4" y="2.171"/><use xlink:href="#5" y="4.342"/><use xlink:href="#6" y="6.513"/><use xlink:href="#7" y="8.684"/><use xlink:href="#8" y="13.026"/><use xlink:href="#9" y="15.197"/><use xlink:href="#5" y="19.539"/><use xlink:href="#10" y="21.71"/><use xlink:href="#11" y="23.881"/><use xlink:href="#5" y="26.052"/><use xlink:href="#12" y="28.223"/><use xlink:href="#7" y="30.394"/></svg><svg x="1679"><use xlink:href="#a"/><use xlink:href="#b" x="-.004" y="34.711"/><use xlink:href="#6"/><use xlink:href="#7" y="2.171"/><use xlink:href="#8" y="6.513"/><use xlink:href="#9" y="8.684"/><use xlink:href="#5" y="13.026"/><use xlink:href="#10" y="15.197"/><use xlink:href="#11" y="17.368"/><use xlink:href="#5" y="19.539"/><use xlink:href="#12" y="21.71"/><use xlink:href="#7" y="23.881"/><use xlink:href="#8" y="28.223"/><use xlink:href="#13" y="30.394"/></svg><svg x="1752"><use xlink:href="#a"/><use xlink:href="#b" x="-.004" y="34.711"/><use xlink:href="#6"/><use xlink:href="#7" y="2.171"/><use xlink:href="#8" y="6.513"/><use xlink:href="#9" y="8.684"/><use xlink:href="#5" y="13.026"/><use xlink:href="#10" y="15.197"/><use xlink:href="#11" y="17.368"/><use xlink:href="#5" y="19.539"/><use xlink:href="#12" y="21.71"/><use xlink:href="#7" y="23.881"/><use xlink:href="#8" y="28.223"/><use xlink:href="#13" y="30.394"/></svg><svg x="1825"><use xlink:href="#a"/><use xlink:href="#b" x="2.996" y="34.711"/><use xlink:href="#7"/><use xlink:href="#8" y="4.342"/><use xlink:href="#9" y="6.513"/><use xlink:href="#5" y="10.855"/><use xlink:href="#10" y="13.026"/><use xlink:href="#11" y="15.197"/><use xlink:href="#5" y="17.368"/><use xlink:href="#12" y="19.539"/><use xlink:href="#7" y="21.71"/><use xlink:href="#8" y="26.052"/><use xlink:href="#13" y="28.223"/><use xlink:href="#5" y="32.565"/><use xlink:href="#2" y="34.736"/></svg><svg x="1898"><use xlink:href="#a"/><use xlink:href="#b" x="-.004" y="34.711"/><use xlink:href="#8" y="2.171"/><use xlink:href="#9" y="4.342"/><use xlink:href="#5" y="8.684"/><use xlink:href="#10" y="10.855"/><use xlink:href="#11" y="13.026"/><use xlink:href="#5" y="15.197"/><use xlink:href="#12" y="17.368"/><use xlink:href="#7" y="19.539"/><use xlink:href="#8" y="23.881"/><use xlink:href="#13" y="26.052"/><use xlink:href="#5" y="30.394"/><text x="1.002" y="34.235" class="c">$</text><text x="3.006" y="34.235" class="h">exit</text></svg></svg></g></g></svg></svg>