<svg xmlns="http://www.w3.org/2000/svg" xmlns:xlink="http://www.w3.org/1999/xlink" width="1218" height="321.94"><rect width="1218" height="321.94" rx="0" ry="0" class="a"/><svg height="303.94" viewBox="0 0 120 30.394" width="1200" x="9" xmlns="http://www.w3.org/2000/svg" xmlns:xlink="http://www.w3.org/1999/xlink" y="9"><style>@keyframes s{0%{transform:translateX(0)}1.3%{transform:translateX(-120px)}1.4%{transform:translateX(-240px)}17.4%{transform:translateX(-360px)}29.5%{transform:translateX(-480px)}30.7%{transform:translateX(-1440px)}30.8%{transform:translateX(-1560px)}30.9%{transform:translateX(-1680px)}46.9%{transform:translateX(-1800px)}55.3%{transform:translateX(-1920px)}60.2%{transform:translateX(-2160px)}65.4%{transform:translateX(-2280px)}65.5%{transform:translateX(-2400px)}78.1%{transform:translateX(-2520px)}78.2%{transform:translateX(-2640px)}82.8%{transform:translateX(-3000px)}83.9%{transform:translateX(-3120px)}84%{transform:translateX(-3240px)}to{transform:translateX(-3360px)}}.a{fill:#282d35}.c,.d,.e,.f,.g{fill:#dbab79;font-weight:700}.d,.e,.f,.g{fill:#a8cc8c}.e,.f,.g{fill:#66c2cd}.f,.g{fill:#71bef2}.g{fill:#d290e4}.h{fill:#b9c0cb}.i{fill:#444}.l{fill:#f8f8f2}.m{fill:#f92672}.n{fill:#e6db74}.o{fill:#a8cc8c}.p{fill:#dbab79}</style><g font-size="1.67" font-family="Monaco,Consolas,Menlo,'Bitstream Vera Sans Mono','Powerline Symbols',monospace"><defs><symbol id="1"><text x="1.002" y="1.67" class="c">❤</text><text x="3.006" y="1.67" class="d">lilian</text><text x="9.018" y="1.67" class="e">@</text><text x="10.02" y="1.67" class="d">rainbowdash.wingcon.com</text><text x="34.068" y="1.67" class="f">&lt;11:55&gt;</text><text x="43.086" y="1.67" class="g">0</text><text x="46.092" y="1.67" class="e">~</text></symbol><symbol id="2"><text x="1.002" y="1.67" class="c">$</text></symbol><symbol id="3"><text x="1.002" y="1.67" class="c">$</text><text x="3.006" y="1.67" class="h">bat</text><text x="7.014" y="1.67" class="h">bash.yml</text></symbol><symbol id="4"><text y="1.67" class="i">───────┬────────────────────────────────────────────────────────────────────────────</text></symbol><symbol id="5"><text x="7.014" y="1.67" class="i">│</text><text x="9.018" y="1.67" class="h">File:</text><text x="15.03" y="1.67" fill="#b9c0cb" font-weight="700">bash.yml</text></symbol><symbol id="6"><text y="1.67" class="i">───────┼────────────────────────────────────────────────────────────────────────────</text></symbol><symbol id="7"><text x="3.006" y="1.67" class="i">1</text><text x="7.014" y="1.67" class="i">│</text><text x="9.018" y="1.67" fill="#a6e22e">---</text></symbol><symbol id="8"><text x="3.006" y="1.67" class="i">2</text><text x="7.014" y="1.67" class="i">│</text><text x="9.018" y="1.67" class="l">-</text><text x="11.022" y="1.67" class="m">name</text><text x="15.03" y="1.67" class="l">:</text><text x="17.034" y="1.67" class="n">run</text><text x="21.042" y="1.67" class="n">bash</text><text x="26.052" y="1.67" class="n">commands</text></symbol><symbol id="9"><text x="3.006" y="1.67" class="i">3</text><text x="7.014" y="1.67" class="i">│</text><text x="11.022" y="1.67" class="m">hosts</text><text x="16.032" y="1.67" class="l">:</text><text x="18.036" y="1.67" class="n">localhost</text></symbol><symbol id="10"><text x="3.006" y="1.67" class="i">4</text><text x="7.014" y="1.67" class="i">│</text><text x="11.022" y="1.67" class="m">tasks</text><text x="16.032" y="1.67" class="l">:</text></symbol><symbol id="11"><text x="3.006" y="1.67" class="i">5</text><text x="7.014" y="1.67" class="i">│</text><text x="13.026" y="1.67" class="l">-</text><text x="15.03" y="1.67" class="m">name</text><text x="19.038" y="1.67" class="l">:</text><text x="21.042" y="1.67" class="n">run</text><text x="25.05" y="1.67" class="n">whoami</text><text x="32.064" y="1.67" class="n">and</text><text x="36.072" y="1.67" class="n">ddate</text><text x="42.084" y="1.67" class="n">from</text><text x="47.094" y="1.67" class="n">shell</text></symbol><symbol id="12"><text x="3.006" y="1.67" class="i">6</text><text x="7.014" y="1.67" class="i">│</text><text x="15.03" y="1.67" class="m">shell</text><text x="20.04" y="1.67" class="l">:</text><text x="22.044" y="1.67" class="m">|</text></symbol><symbol id="13"><text x="3.006" y="1.67" class="i">7</text><text x="7.014" y="1.67" class="i">│</text><text x="17.034" y="1.67" class="n">whoami</text></symbol><symbol id="14"><text x="3.006" y="1.67" class="i">8</text><text x="7.014" y="1.67" class="i">│</text><text x="17.034" y="1.67" class="n">ddate</text></symbol><symbol id="15"><text y="1.67" class="i">───────┴────────────────────────────────────────────────────────────────────────────</text></symbol><symbol id="16"><text x="1.002" y="1.67" class="c">$</text><text x="3.006" y="1.67" class="h">ansible-playbook</text><text x="20.04" y="1.67" class="h">bash.yml</text></symbol><symbol id="17"><text x="1.002" y="1.67" class="g">[WARNING]:</text><text x="12.024" y="1.67" class="g">No</text><text x="15.03" y="1.67" class="g">inventory</text><text x="25.05" y="1.67" class="g">was</text><text x="29.058" y="1.67" class="g">parsed,</text><text x="37.074" y="1.67" class="g">only</text><text x="42.084" y="1.67" class="g">implicit</text><text x="51.102" y="1.67" class="g">localhost</text><text x="61.122" y="1.67" class="g">is</text><text x="64.128" y="1.67" class="g">available</text></symbol><symbol id="18"><text x="1.002" y="1.67" class="g">[WARNING]:</text><text x="12.024" y="1.67" class="g">provided</text><text x="21.042" y="1.67" class="g">hosts</text><text x="27.054" y="1.67" class="g">list</text><text x="32.064" y="1.67" class="g">is</text><text x="35.07" y="1.67" class="g">empty,</text><text x="42.084" y="1.67" class="g">only</text><text x="47.094" y="1.67" class="g">localhost</text><text x="57.114" y="1.67" class="g">is</text><text x="60.12" y="1.67" class="g">available.</text><text x="71.142" y="1.67" class="g">Note</text><text x="76.152" y="1.67" class="g">that</text></symbol><symbol id="19"><text y="1.67" class="g">the</text><text x="4.008" y="1.67" class="g">implicit</text><text x="13.026" y="1.67" class="g">localhost</text><text x="23.046" y="1.67" class="g">does</text><text x="28.056" y="1.67" class="g">not</text><text x="32.064" y="1.67" class="g">match</text><text x="38.076" y="1.67" class="g">&apos;all&apos;</text></symbol><symbol id="20"><text y="1.67" class="h">PLAY</text><text x="5.01" y="1.67" class="h">[run</text><text x="10.02" y="1.67" class="h">bash</text><text x="15.03" y="1.67" class="h">commands]</text><text x="25.05" y="1.67" class="h">***********************************************************</text></symbol><symbol id="21"><text y="1.67" class="h">TASK</text><text x="5.01" y="1.67" class="h">[Gathering</text><text x="16.032" y="1.67" class="h">Facts]</text><text x="23.046" y="1.67" class="h">*************************************************************</text></symbol><symbol id="22"><text y="1.67" class="o">ok:</text><text x="4.008" y="1.67" class="o">[localhost]</text></symbol><symbol id="23"><text y="1.67" class="h">TASK</text><text x="5.01" y="1.67" class="h">[run</text><text x="10.02" y="1.67" class="h">whoami</text><text x="17.034" y="1.67" class="h">and</text><text x="21.042" y="1.67" class="h">ddate</text><text x="27.054" y="1.67" class="h">from</text><text x="32.064" y="1.67" class="h">shell]</text><text x="39.078" y="1.67" class="h">*********************************************</text></symbol><symbol id="24"><text y="1.67" class="p">changed:</text><text x="9.018" y="1.67" class="p">[localhost]</text></symbol><symbol id="25"><text y="1.67" class="h">PLAY</text><text x="5.01" y="1.67" class="h">RECAP</text><text x="11.022" y="1.67" class="h">*************************************************************************</text></symbol><symbol id="26"><text y="1.67" class="p">localhost</text><text x="27.054" y="1.67" class="h">:</text><text x="29.058" y="1.67" class="o">ok=2</text><text x="37.074" y="1.67" class="p">changed=1</text><text x="50.1" y="1.67" class="h">unreachable=0</text><text x="67.134" y="1.67" class="h">failed=0</text><text x="79.158" y="1.67" class="h">skipped=0</text><text x="92.184" y="1.67" class="h">rescued=0</text><text x="105.21" y="1.67" class="h">ignored=0</text></symbol><symbol id="27"><text x="1.002" y="1.67" class="c">❤</text><text x="3.006" y="1.67" class="d">lilian</text><text x="9.018" y="1.67" class="e">@</text><text x="10.02" y="1.67" class="d">rainbowdash.wingcon.com</text><text x="34.068" y="1.67" class="f">&lt;11:56&gt;</text><text x="43.086" y="1.67" class="g">0</text><text x="46.092" y="1.67" class="e">~</text></symbol><symbol id="a"><path fill="transparent" d="M0 0h120v15H0z"/></symbol><symbol id="b"><path fill="#6f7683" d="M0 0h1.102v2.171H0z"/></symbol></defs><path class="a" d="M0 0h120v30.394H0z"/><g style="animation-duration:6.2485000000000035s;animation-iteration-count:infinite;animation-name:s;animation-timing-function:steps(1,end)"><svg width="3480"><svg><use xlink:href="#a"/><use xlink:href="#b" x="-.004"/></svg><svg x="120"><use xlink:href="#a"/><use xlink:href="#b" x="-.004"/></svg><svg x="240"><use xlink:href="#a"/><use xlink:href="#b" x="2.996" y="2.146"/><use xlink:href="#1"/><use xlink:href="#2" y="2.171"/></svg><svg x="360"><use xlink:href="#a"/><use xlink:href="#b" x="14.996" y="2.146"/><use xlink:href="#1"/><use xlink:href="#3" y="2.171"/></svg><svg x="480"><use xlink:href="#a"/><use xlink:href="#b" x="-.004" y="4.317"/><use xlink:href="#1"/><use xlink:href="#3" y="2.171"/></svg><svg x="600"><use xlink:href="#a"/><use xlink:href="#b" x="-.004" y="4.317"/><use xlink:href="#1"/><use xlink:href="#3" y="2.171"/></svg><svg x="720"><use xlink:href="#a"/><use xlink:href="#b" x="17.996" y="15.172"/><use xlink:href="#1"/><use xlink:href="#3" y="2.171"/><use xlink:href="#4" y="4.342"/><use xlink:href="#5" y="6.513"/><use xlink:href="#6" y="8.684"/><use xlink:href="#7" y="10.855"/><use xlink:href="#8" y="13.026"/><text x="3.006" y="16.867" class="i">3</text><text x="7.014" y="16.867" class="i">│</text><text x="11.022" y="16.867" class="m">hosts</text><text x="16.032" y="16.867" class="l">:</text></svg><svg x="840"><use xlink:href="#a"/><use xlink:href="#b" x="-.004" y="17.343"/><use xlink:href="#1"/><use xlink:href="#3" y="2.171"/><use xlink:href="#4" y="4.342"/><use xlink:href="#5" y="6.513"/><use xlink:href="#6" y="8.684"/><use xlink:href="#7" y="10.855"/><use xlink:href="#8" y="13.026"/><use xlink:href="#9" y="15.197"/></svg><svg x="960"><use xlink:href="#a"/><use xlink:href="#b" x="-.004" y="19.514"/><use xlink:href="#1"/><use xlink:href="#3" y="2.171"/><use xlink:href="#4" y="4.342"/><use xlink:href="#5" y="6.513"/><use xlink:href="#6" y="8.684"/><use xlink:href="#7" y="10.855"/><use xlink:href="#8" y="13.026"/><use xlink:href="#9" y="15.197"/><use xlink:href="#10" y="17.368"/></svg><svg x="1080"><use xlink:href="#a"/><use xlink:href="#b" x="-.004" y="21.685"/><use xlink:href="#1"/><use xlink:href="#3" y="2.171"/><use xlink:href="#4" y="4.342"/><use xlink:href="#5" y="6.513"/><use xlink:href="#6" y="8.684"/><use xlink:href="#7" y="10.855"/><use xlink:href="#8" y="13.026"/><use xlink:href="#9" y="15.197"/><use xlink:href="#10" y="17.368"/><use xlink:href="#11" y="19.539"/></svg><svg x="1200"><use xlink:href="#a"/><use xlink:href="#b" x="-.004" y="28.198"/><use xlink:href="#1"/><use xlink:href="#3" y="2.171"/><use xlink:href="#4" y="4.342"/><use xlink:href="#5" y="6.513"/><use xlink:href="#6" y="8.684"/><use xlink:href="#7" y="10.855"/><use xlink:href="#8" y="13.026"/><use xlink:href="#9" y="15.197"/><use xlink:href="#10" y="17.368"/><use xlink:href="#11" y="19.539"/><use xlink:href="#12" y="21.71"/><use xlink:href="#13" y="23.881"/><use xlink:href="#14" y="26.052"/></svg><svg x="1320"><use xlink:href="#a"/><use xlink:href="#b" x="-.004" y="30.369"/><use xlink:href="#1"/><use xlink:href="#3" y="2.171"/><use xlink:href="#4" y="4.342"/><use xlink:href="#5" y="6.513"/><use xlink:href="#6" y="8.684"/><use xlink:href="#7" y="10.855"/><use xlink:href="#8" y="13.026"/><use xlink:href="#9" y="15.197"/><use xlink:href="#10" y="17.368"/><use xlink:href="#11" y="19.539"/><use xlink:href="#12" y="21.71"/><use xlink:href="#13" y="23.881"/><use xlink:href="#14" y="26.052"/><use xlink:href="#15" y="28.223"/></svg><svg x="1440"><use xlink:href="#a"/><use xlink:href="#b" x="-.004" y="30.369"/><use xlink:href="#1"/><use xlink:href="#3" y="2.171"/><use xlink:href="#4" y="4.342"/><use xlink:href="#5" y="6.513"/><use xlink:href="#6" y="8.684"/><use xlink:href="#7" y="10.855"/><use xlink:href="#8" y="13.026"/><use xlink:href="#9" y="15.197"/><use xlink:href="#10" y="17.368"/><use xlink:href="#11" y="19.539"/><use xlink:href="#12" y="21.71"/><use xlink:href="#13" y="23.881"/><use xlink:href="#14" y="26.052"/><use xlink:href="#15" y="28.223"/></svg><svg x="1560"><use xlink:href="#a"/><use xlink:href="#b" x="-.004" y="30.369"/><use xlink:href="#1"/><use xlink:href="#3" y="2.171"/><use xlink:href="#4" y="4.342"/><use xlink:href="#5" y="6.513"/><use xlink:href="#6" y="8.684"/><use xlink:href="#7" y="10.855"/><use xlink:href="#8" y="13.026"/><use xlink:href="#9" y="15.197"/><use xlink:href="#10" y="17.368"/><use xlink:href="#11" y="19.539"/><use xlink:href="#12" y="21.71"/><use xlink:href="#13" y="23.881"/><use xlink:href="#14" y="26.052"/><use xlink:href="#15" y="28.223"/></svg><svg x="1680"><use xlink:href="#a"/><use xlink:href="#b" x="2.996" y="30.369"/><use xlink:href="#3"/><use xlink:href="#4" y="2.171"/><use xlink:href="#5" y="4.342"/><use xlink:href="#6" y="6.513"/><use xlink:href="#7" y="8.684"/><use xlink:href="#8" y="10.855"/><use xlink:href="#9" y="13.026"/><use xlink:href="#10" y="15.197"/><use xlink:href="#11" y="17.368"/><use xlink:href="#12" y="19.539"/><use xlink:href="#13" y="21.71"/><use xlink:href="#14" y="23.881"/><use xlink:href="#15" y="26.052"/><use xlink:href="#1" y="28.223"/><use xlink:href="#2" y="30.394"/></svg><svg x="1800"><use xlink:href="#a"/><use xlink:href="#b" x="27.996" y="30.369"/><use xlink:href="#3"/><use xlink:href="#4" y="2.171"/><use xlink:href="#5" y="4.342"/><use xlink:href="#6" y="6.513"/><use xlink:href="#7" y="8.684"/><use xlink:href="#8" y="10.855"/><use xlink:href="#9" y="13.026"/><use xlink:href="#10" y="15.197"/><use xlink:href="#11" y="17.368"/><use xlink:href="#12" y="19.539"/><use xlink:href="#13" y="21.71"/><use xlink:href="#14" y="23.881"/><use xlink:href="#15" y="26.052"/><use xlink:href="#1" y="28.223"/><use xlink:href="#16" y="30.394"/></svg><svg x="1920"><use xlink:href="#a"/><use xlink:href="#b" x="-.004" y="30.369"/><use xlink:href="#4"/><use xlink:href="#5" y="2.171"/><use xlink:href="#6" y="4.342"/><use xlink:href="#7" y="6.513"/><use xlink:href="#8" y="8.684"/><use xlink:href="#9" y="10.855"/><use xlink:href="#10" y="13.026"/><use xlink:href="#11" y="15.197"/><use xlink:href="#12" y="17.368"/><use xlink:href="#13" y="19.539"/><use xlink:href="#14" y="21.71"/><use xlink:href="#15" y="23.881"/><use xlink:href="#1" y="26.052"/><use xlink:href="#16" y="28.223"/></svg><svg x="2040"><use xlink:href="#a"/><use xlink:href="#b" x="-.004" y="30.369"/><use xlink:href="#6"/><use xlink:href="#7" y="2.171"/><use xlink:href="#8" y="4.342"/><use xlink:href="#9" y="6.513"/><use xlink:href="#10" y="8.684"/><use xlink:href="#11" y="10.855"/><use xlink:href="#12" y="13.026"/><use xlink:href="#13" y="15.197"/><use xlink:href="#14" y="17.368"/><use xlink:href="#15" y="19.539"/><use xlink:href="#1" y="21.71"/><use xlink:href="#16" y="23.881"/><use xlink:href="#17" y="26.052"/></svg><svg x="2160"><use xlink:href="#a"/><use xlink:href="#b" x="-.004" y="30.369"/><use xlink:href="#9"/><use xlink:href="#10" y="2.171"/><use xlink:href="#11" y="4.342"/><use xlink:href="#12" y="6.513"/><use xlink:href="#13" y="8.684"/><use xlink:href="#14" y="10.855"/><use xlink:href="#15" y="13.026"/><use xlink:href="#1" y="15.197"/><use xlink:href="#16" y="17.368"/><use xlink:href="#17" y="19.539"/><use xlink:href="#18" y="23.881"/><use xlink:href="#19" y="26.052"/></svg><svg x="2280"><use xlink:href="#a"/><use xlink:href="#b" x="-.004" y="30.369"/><use xlink:href="#11"/><use xlink:href="#12" y="2.171"/><use xlink:href="#13" y="4.342"/><use xlink:href="#14" y="6.513"/><use xlink:href="#15" y="8.684"/><use xlink:href="#1" y="10.855"/><use xlink:href="#16" y="13.026"/><use xlink:href="#17" y="15.197"/><use xlink:href="#18" y="19.539"/><use xlink:href="#19" y="21.71"/><use xlink:href="#20" y="28.223"/></svg><svg x="2400"><use xlink:href="#a"/><use xlink:href="#b" x="-.004" y="30.369"/><use xlink:href="#13"/><use xlink:href="#14" y="2.171"/><use xlink:href="#15" y="4.342"/><use xlink:href="#1" y="6.513"/><use xlink:href="#16" y="8.684"/><use xlink:href="#17" y="10.855"/><use xlink:href="#18" y="15.197"/><use xlink:href="#19" y="17.368"/><use xlink:href="#20" y="23.881"/><use xlink:href="#21" y="28.223"/></svg><svg x="2520"><use xlink:href="#a"/><use xlink:href="#b" x="-.004" y="30.369"/><use xlink:href="#14"/><use xlink:href="#15" y="2.171"/><use xlink:href="#1" y="4.342"/><use xlink:href="#16" y="6.513"/><use xlink:href="#17" y="8.684"/><use xlink:href="#18" y="13.026"/><use xlink:href="#19" y="15.197"/><use xlink:href="#20" y="21.71"/><use xlink:href="#21" y="26.052"/><use xlink:href="#22" y="28.223"/></svg><svg x="2640"><use xlink:href="#a"/><use xlink:href="#b" x="-.004" y="30.369"/><use xlink:href="#1"/><use xlink:href="#16" y="2.171"/><use xlink:href="#17" y="4.342"/><use xlink:href="#18" y="8.684"/><use xlink:href="#19" y="10.855"/><use xlink:href="#20" y="17.368"/><use xlink:href="#21" y="21.71"/><use xlink:href="#22" y="23.881"/><use xlink:href="#23" y="28.223"/></svg><svg x="2760"><use xlink:href="#a"/><use xlink:href="#b" x="-.004" y="30.369"/><use xlink:href="#16"/><use xlink:href="#17" y="2.171"/><use xlink:href="#18" y="6.513"/><use xlink:href="#19" y="8.684"/><use xlink:href="#20" y="15.197"/><use xlink:href="#21" y="19.539"/><use xlink:href="#22" y="21.71"/><use xlink:href="#23" y="26.052"/><use xlink:href="#24" y="28.223"/></svg><svg x="2880"><use xlink:href="#a"/><use xlink:href="#b" x="-.004" y="30.369"/><use xlink:href="#18" y="2.171"/><use xlink:href="#19" y="4.342"/><use xlink:href="#20" y="10.855"/><use xlink:href="#21" y="15.197"/><use xlink:href="#22" y="17.368"/><use xlink:href="#23" y="21.71"/><use xlink:href="#24" y="23.881"/><use xlink:href="#25" y="28.223"/></svg><svg x="3000"><use xlink:href="#a"/><use xlink:href="#b" x="-.004" y="30.369"/><use xlink:href="#19"/><use xlink:href="#20" y="6.513"/><use xlink:href="#21" y="10.855"/><use xlink:href="#22" y="13.026"/><use xlink:href="#23" y="17.368"/><use xlink:href="#24" y="19.539"/><use xlink:href="#25" y="23.881"/><use xlink:href="#26" y="26.052"/></svg><svg x="3120"><use xlink:href="#a"/><use xlink:href="#b" x="-.004" y="30.369"/><use xlink:href="#19"/><use xlink:href="#20" y="6.513"/><use xlink:href="#21" y="10.855"/><use xlink:href="#22" y="13.026"/><use xlink:href="#23" y="17.368"/><use xlink:href="#24" y="19.539"/><use xlink:href="#25" y="23.881"/><use xlink:href="#26" y="26.052"/></svg><svg x="3240"><use xlink:href="#a"/><use xlink:href="#b" x="2.996" y="30.369"/><use xlink:href="#20" y="4.342"/><use xlink:href="#21" y="8.684"/><use xlink:href="#22" y="10.855"/><use xlink:href="#23" y="15.197"/><use xlink:href="#24" y="17.368"/><use xlink:href="#25" y="21.71"/><use xlink:href="#26" y="23.881"/><use xlink:href="#27" y="28.223"/><use xlink:href="#2" y="30.394"/></svg><svg x="3360"><use xlink:href="#a"/><use xlink:href="#b" x="-.004" y="30.369"/><use xlink:href="#20" y="2.171"/><use xlink:href="#21" y="6.513"/><use xlink:href="#22" y="8.684"/><use xlink:href="#23" y="13.026"/><use xlink:href="#24" y="15.197"/><use xlink:href="#25" y="19.539"/><use xlink:href="#26" y="21.71"/><use xlink:href="#27" y="26.052"/><text x="1.002" y="29.893" class="c">$</text><text x="3.006" y="29.893" class="h">exit</text></svg></svg></g></g></svg></svg>